<svg width="311" height="349" viewBox="0 0 311 349" fill="none" xmlns="http://www.w3.org/2000/svg">
<circle cx="38.3171" cy="37.3171" r="34.3171" fill="#10B981" stroke="#86EFAC" stroke-width="6"/>
<circle cx="38.3171" cy="161.397" r="34.3171" fill="#10B981" stroke="#86EFAC" stroke-width="6"/>
<circle cx="155.646" cy="210.646" r="43.6464" fill="#10B981" stroke="#86EFAC" stroke-width="6"/>
<path d="M54.1005 293.334C54.1005 306.7 42.9588 317.667 29.0503 317.667C15.1417 317.667 4 306.7 4 293.334C4 279.967 15.1417 269 29.0503 269C42.9588 269 54.1005 279.967 54.1005 293.334Z" fill="#10B981" stroke="#86EFAC" stroke-width="6"/>
<path d="M306.101 293.334C306.101 306.7 294.959 317.667 281.05 317.667C267.142 317.667 256 306.7 256 293.334C256 279.967 267.142 269 281.05 269C294.959 269 306.101 279.967 306.101 293.334Z" fill="#10B981" stroke="#86EFAC" stroke-width="6"/>
<path d="M180.101 321.334C180.101 334.7 168.959 345.667 155.05 345.667C141.142 345.667 130 334.7 130 321.334C130 307.967 141.142 297 155.05 297C168.959 297 180.101 307.967 180.101 321.334Z" fill="#10B981" stroke="#86EFAC" stroke-width="6"/>
<circle cx="271.317" cy="67.3171" r="34.3171" fill="#10B981" stroke="#86EFAC" stroke-width="6"/>
<path d="M26.9259 162.834C26.9259 162.133 27.2097 161.46 27.7149 160.964C28.2201 160.468 28.9053 160.189 29.6197 160.189H40.395C40.7522 160.189 41.0947 160.329 41.3473 160.577L48.0818 167.19C48.3344 167.438 48.4764 167.774 48.4764 168.125V183.996C48.4764 184.698 48.1926 185.37 47.6874 185.866C47.1823 186.362 46.4971 186.641 45.7826 186.641H29.6197C28.9053 186.641 28.2201 186.362 27.7149 185.866C27.2097 185.37 26.9259 184.698 26.9259 183.996V162.834ZM45.225 168.125L40.395 163.382V168.125H45.225ZM37.7012 162.834H29.6197V183.996H45.7826V170.77H39.0481C38.6909 170.77 38.3483 170.631 38.0957 170.383C37.8431 170.135 37.7012 169.798 37.7012 169.447V162.834ZM32.3135 174.738C32.3135 174.387 32.4554 174.051 32.708 173.803C32.9606 173.555 33.3032 173.415 33.6604 173.415H41.7419C42.0991 173.415 42.4417 173.555 42.6943 173.803C42.9469 174.051 43.0888 174.387 43.0888 174.738C43.0888 175.089 42.9469 175.425 42.6943 175.673C42.4417 175.921 42.0991 176.06 41.7419 176.06H33.6604C33.3032 176.06 32.9606 175.921 32.708 175.673C32.4554 175.425 32.3135 175.089 32.3135 174.738ZM32.3135 180.028C32.3135 179.677 32.4554 179.341 32.708 179.093C32.9606 178.845 33.3032 178.706 33.6604 178.706H41.7419C42.0991 178.706 42.4417 178.845 42.6943 179.093C42.9469 179.341 43.0888 179.677 43.0888 180.028C43.0888 180.379 42.9469 180.715 42.6943 180.963C42.4417 181.211 42.0991 181.351 41.7419 181.351H33.6604C33.3032 181.351 32.9606 181.211 32.708 180.963C32.4554 180.715 32.3135 180.379 32.3135 180.028Z" fill="white"/>
<path d="M146.979 191.204C146.979 190.62 147.216 190.059 147.637 189.646C148.058 189.232 148.629 189 149.224 189H162.693C163.289 189 163.86 189.232 164.281 189.646C164.702 190.059 164.938 190.62 164.938 191.204H169.428C170.619 191.204 171.761 191.669 172.603 192.496C173.445 193.322 173.918 194.444 173.918 195.613V228.678C173.918 229.847 173.445 230.968 172.603 231.795C171.761 232.622 170.619 233.087 169.428 233.087H142.49C141.299 233.087 140.157 232.622 139.315 231.795C138.473 230.968 138 229.847 138 228.678V195.613C138 194.444 138.473 193.322 139.315 192.496C140.157 191.669 141.299 191.204 142.49 191.204H146.979ZM146.979 195.613H142.49V228.678H169.428V195.613H164.938V197.817C164.938 198.402 164.702 198.963 164.281 199.376C163.86 199.789 163.289 200.022 162.693 200.022H149.224C148.629 200.022 148.058 199.789 147.637 199.376C147.216 198.963 146.979 198.402 146.979 197.817V195.613ZM160.448 193.409H151.469V195.613H160.448V193.409ZM164.28 208.383C164.701 208.796 164.938 209.357 164.938 209.941C164.938 210.526 164.701 211.086 164.28 211.5L155.301 220.317C154.88 220.73 154.309 220.962 153.714 220.962C153.119 220.962 152.548 220.73 152.127 220.317L147.637 215.908C147.423 215.705 147.252 215.462 147.134 215.193C147.016 214.924 146.954 214.635 146.952 214.342C146.949 214.049 147.006 213.759 147.119 213.488C147.232 213.217 147.399 212.971 147.609 212.764C147.82 212.557 148.071 212.393 148.347 212.282C148.622 212.172 148.918 212.116 149.216 212.118C149.514 212.121 149.809 212.182 150.083 212.297C150.357 212.413 150.604 212.581 150.811 212.791L153.714 215.642L161.106 208.383C161.527 207.969 162.098 207.737 162.693 207.737C163.289 207.737 163.859 207.969 164.28 208.383Z" fill="white"/>
<path d="M272 282.939C272 282.16 272.315 281.412 272.877 280.861C273.438 280.31 274.199 280 274.993 280H286.966C287.76 280 288.521 280.31 289.082 280.861C289.643 281.412 289.959 282.16 289.959 282.939V303.513C289.959 304.292 289.643 305.04 289.082 305.591C288.521 306.142 287.76 306.452 286.966 306.452H274.993C274.199 306.452 273.438 306.142 272.877 305.591C272.315 305.04 272 304.292 272 303.513V282.939ZM286.966 282.939H274.993V303.513H286.966V282.939Z" fill="white"/>
<path d="M281.934 301.155C281.934 301.402 281.837 301.639 281.663 301.814C281.489 301.989 281.254 302.088 281.008 302.088C280.763 302.088 280.527 301.989 280.354 301.814C280.18 301.639 280.083 301.402 280.083 301.155C280.083 300.907 280.18 300.67 280.354 300.495C280.527 300.32 280.763 300.222 281.008 300.222C281.254 300.222 281.489 300.32 281.663 300.495C281.837 300.67 281.934 300.907 281.934 301.155Z" fill="white"/>
<path d="M15 282.784C15 282.046 15.2987 281.338 15.8305 280.816C16.3623 280.293 17.0835 280 17.8356 280H40.5204C41.2724 280 41.9937 280.293 42.5254 280.816C43.0572 281.338 43.356 282.046 43.356 282.784V298.099C43.356 298.837 43.0572 299.545 42.5254 300.068C41.9937 300.59 41.2724 300.883 40.5204 300.883H30.5958V303.668H34.8492C35.2252 303.668 35.5858 303.814 35.8517 304.075C36.1176 304.336 36.267 304.69 36.267 305.06C36.267 305.429 36.1176 305.783 35.8517 306.044C35.5858 306.305 35.2252 306.452 34.8492 306.452H23.5068C23.1308 306.452 22.7701 306.305 22.5043 306.044C22.2384 305.783 22.089 305.429 22.089 305.06C22.089 304.69 22.2384 304.336 22.5043 304.075C22.7701 303.814 23.1308 303.668 23.5068 303.668H27.7602V300.883H17.8356C17.0835 300.883 16.3623 300.59 15.8305 300.068C15.2987 299.545 15 298.837 15 298.099V282.784ZM40.5204 298.099V282.784H17.8356V298.099H40.5204Z" fill="white"/>
<path d="M252 52.25C252 51.1228 252.456 50.0418 253.268 49.2448C254.079 48.4478 255.18 48 256.328 48H286.625C287.773 48 288.874 48.4478 289.686 49.2448C290.497 50.0418 290.953 51.1228 290.953 52.25V82.0001C290.953 83.1272 290.497 84.2082 289.686 85.0053C288.874 85.8023 287.773 86.2501 286.625 86.2501H256.328C255.18 86.2501 254.079 85.8023 253.268 85.0053C252.456 84.2082 252 83.1272 252 82.0001V52.25ZM286.625 52.25H256.328V82.0001H286.625V52.25ZM271.477 56.5C272.051 56.5 272.601 56.7239 273.007 57.1224C273.413 57.5209 273.641 58.0614 273.641 58.625V75.625C273.641 76.1886 273.413 76.7291 273.007 77.1276C272.601 77.5262 272.051 77.75 271.477 77.75C270.903 77.75 270.352 77.5262 269.946 77.1276C269.541 76.7291 269.313 76.1886 269.313 75.625V58.625C269.313 58.0614 269.541 57.5209 269.946 57.1224C270.352 56.7239 270.903 56.5 271.477 56.5ZM280.133 60.75C280.707 60.75 281.257 60.9739 281.663 61.3724C282.069 61.7709 282.297 62.3114 282.297 62.875V75.625C282.297 76.1886 282.069 76.7291 281.663 77.1276C281.257 77.5262 280.707 77.75 280.133 77.75C279.559 77.75 279.008 77.5262 278.603 77.1276C278.197 76.7291 277.969 76.1886 277.969 75.625V62.875C277.969 62.3114 278.197 61.7709 278.603 61.3724C279.008 60.9739 279.559 60.75 280.133 60.75ZM262.82 65C263.394 65 263.945 65.2239 264.351 65.6224C264.756 66.0209 264.984 66.5614 264.984 67.125V75.625C264.984 76.1886 264.756 76.7291 264.351 77.1276C263.945 77.5262 263.394 77.75 262.82 77.75C262.246 77.75 261.696 77.5262 261.29 77.1276C260.884 76.7291 260.656 76.1886 260.656 75.625V67.125C260.656 66.5614 260.884 66.0209 261.29 65.6224C261.696 65.2239 262.246 65 262.82 65Z" fill="white"/>
<path d="M22 21.0116C22 19.9477 22.4304 18.9273 23.1966 18.175C23.9627 17.4226 25.0018 17 26.0853 17H42.4267C42.9684 17.0001 43.4879 17.2115 43.8708 17.5877L54.0842 27.6167C54.4673 27.9928 54.6826 28.5029 54.6827 29.0348V53.1043C54.6827 54.1683 54.2523 55.1886 53.4861 55.941C52.72 56.6933 51.6809 57.1159 50.5974 57.1159H26.0853C25.0018 57.1159 23.9627 56.6933 23.1966 55.941C22.4304 55.1886 22 54.1683 22 53.1043V21.0116ZM49.7517 29.0348L42.4267 21.842V29.0348H49.7517ZM38.3413 21.0116H26.0853V53.1043H50.5974V33.0464H40.384C39.8423 33.0464 39.3227 32.8351 38.9396 32.4589C38.5566 32.0827 38.3413 31.5725 38.3413 31.0406V21.0116ZM38.3413 37.058C38.8831 37.058 39.4027 37.2693 39.7857 37.6455C40.1688 38.0216 40.384 38.5318 40.384 39.0638V41.0696H42.4267C42.9684 41.0696 43.488 41.2809 43.8711 41.657C44.2541 42.0332 44.4693 42.5434 44.4693 43.0754C44.4693 43.6073 44.2541 44.1175 43.8711 44.4937C43.488 44.8698 42.9684 45.0812 42.4267 45.0812H40.384V47.087C40.384 47.6189 40.1688 48.1291 39.7857 48.5053C39.4027 48.8814 38.8831 49.0928 38.3413 49.0928C37.7996 49.0928 37.28 48.8814 36.897 48.5053C36.5139 48.1291 36.2987 47.6189 36.2987 47.087V45.0812H34.256C33.7143 45.0812 33.1947 44.8698 32.8116 44.4937C32.4285 44.1175 32.2133 43.6073 32.2133 43.0754C32.2133 42.5434 32.4285 42.0332 32.8116 41.657C33.1947 41.2809 33.7143 41.0696 34.256 41.0696H36.2987V39.0638C36.2987 38.5318 36.5139 38.0216 36.897 37.6455C37.28 37.2693 37.7996 37.058 38.3413 37.058Z" fill="white"/>
<path d="M140 310.939C140 310.16 140.315 309.412 140.877 308.861C141.438 308.31 142.199 308 142.993 308H166.938C167.732 308 168.493 308.31 169.055 308.861C169.616 309.412 169.931 310.16 169.931 310.939V327.104C169.931 327.884 169.616 328.631 169.055 329.182C168.493 329.734 167.732 330.043 166.938 330.043H142.993C142.199 330.043 141.438 329.734 140.877 329.182C140.315 328.631 140 327.884 140 327.104V310.939ZM166.938 310.939H142.993V327.104H166.938V310.939ZM169.931 332.982C169.931 333.372 169.774 333.746 169.493 334.021C169.212 334.297 168.832 334.452 168.435 334.452H141.497C141.1 334.452 140.719 334.297 140.438 334.021C140.158 333.746 140 333.372 140 332.982C140 332.593 140.158 332.219 140.438 331.943C140.719 331.668 141.1 331.513 141.497 331.513H168.435C168.832 331.513 169.212 331.668 169.493 331.943C169.774 332.219 169.931 332.593 169.931 332.982Z" fill="white"/>
<path d="M36.6346 137.321C36.0038 137.321 35.3794 137.445 34.7981 137.685C34.2169 137.926 33.6906 138.278 33.2503 138.722C32.8099 139.165 32.4645 139.691 32.2343 140.268C32.0041 140.844 31.8937 141.46 31.9098 142.08C31.9161 142.342 31.832 142.598 31.6711 142.807C31.5102 143.016 31.282 143.165 31.0237 143.23C30.1908 143.445 29.4657 143.949 28.9837 144.65C28.5016 145.35 28.2955 146.199 28.4038 147.038C28.5122 147.877 28.9275 148.648 29.5724 149.208C30.2173 149.768 31.0476 150.079 31.9086 150.082H33.0901C33.4035 150.082 33.704 150.205 33.9256 150.422C34.1471 150.64 34.2716 150.935 34.2716 151.243C34.2716 151.55 34.1471 151.845 33.9256 152.063C33.704 152.28 33.4035 152.403 33.0901 152.403H31.9086C30.5479 152.403 29.2289 151.942 28.1743 151.098C27.1197 150.253 26.3943 149.077 26.1207 147.768C25.8471 146.46 26.0419 145.098 26.6724 143.914C27.3029 142.73 28.3304 141.796 29.5811 141.27C29.7301 139.803 30.3492 138.421 31.3492 137.323C32.3492 136.224 33.6785 135.465 35.1457 135.155C36.6129 134.846 38.1424 135.001 39.5138 135.6C40.8852 136.198 42.0278 137.209 42.7771 138.485C44.6316 138.552 46.3858 139.33 47.6628 140.652C48.9399 141.974 49.638 143.735 49.6072 145.557C49.5764 147.379 48.8192 149.117 47.4982 150.397C46.1772 151.677 44.3977 152.397 42.542 152.403C42.2286 152.403 41.9281 152.28 41.7065 152.063C41.485 151.845 41.3605 151.55 41.3605 151.243C41.3605 150.935 41.485 150.64 41.7065 150.422C41.9281 150.205 42.2286 150.082 42.542 150.082C43.1783 150.081 43.8079 149.954 44.3931 149.709C44.9782 149.463 45.5067 149.104 45.9471 148.653C46.3874 148.202 46.7304 147.668 46.9555 147.083C47.1806 146.499 47.2831 145.876 47.257 145.251C47.2309 144.627 47.0767 144.014 46.8035 143.45C46.5304 142.885 46.144 142.381 45.6675 141.967C45.1909 141.553 44.6342 141.237 44.0305 141.04C43.4268 140.842 42.7887 140.766 42.1544 140.816C41.9083 140.836 41.6621 140.779 41.4504 140.654C41.2387 140.53 41.0721 140.343 40.9741 140.12C40.6079 139.289 40.0019 138.58 39.2308 138.083C38.4597 137.586 37.5572 137.321 36.6346 137.321ZM36.9807 143.461C37.2023 143.244 37.5028 143.122 37.816 143.122C38.1293 143.122 38.4298 143.244 38.6513 143.461L41.0143 145.782C41.2295 146 41.3486 146.294 41.3459 146.598C41.3432 146.902 41.219 147.193 40.9999 147.408C40.7809 147.623 40.4845 147.745 40.1748 147.748C39.865 147.75 39.5665 147.633 39.3437 147.422L38.9975 147.082V155.883C38.9975 156.191 38.873 156.486 38.6515 156.703C38.4299 156.921 38.1294 157.043 37.816 157.043C37.5027 157.043 37.2022 156.921 36.9806 156.703C36.759 156.486 36.6346 156.191 36.6346 155.883V147.082L36.2884 147.422C36.0656 147.633 35.7671 147.75 35.4573 147.748C35.1476 147.745 34.8512 147.623 34.6322 147.408C34.4131 147.193 34.2889 146.902 34.2862 146.598C34.2835 146.294 34.4026 146 34.6178 145.782L36.9807 143.461Z" fill="white"/>
<line x1="73.3836" y1="39.5296" x2="234.384" y2="64.5296" stroke="#86EFAC" stroke-width="5"/>
<line x1="238.213" y1="69.186" x2="74.213" y2="160.186" stroke="#86EFAC" stroke-width="5"/>
<line x1="120.047" y1="238.704" x2="50.0468" y2="281.704" stroke="#86EFAC" stroke-width="4"/>
<line x1="155.135" y1="257.147" x2="155.135" y2="298.196" stroke="#86EFAC" stroke-width="4"/>
<line x1="191.984" y1="237.259" x2="260.984" y2="276.259" stroke="#86EFAC" stroke-width="4"/>
<line x1="113.613" y1="192.08" x2="74.6133" y2="166.08" stroke="#86EFAC" stroke-width="5"/>
<path d="M7.76117 86.8C7.76117 87.448 7.90517 88.02 8.19317 88.516C8.48917 89.012 8.87317 89.4 9.34517 89.68C9.81717 89.96 10.3292 90.1 10.8812 90.1C11.2812 90.1 11.6452 90.048 11.9732 89.944C12.3092 89.84 12.6132 89.696 12.8852 89.512C13.1572 89.32 13.3892 89.1 13.5812 88.852V90.196C13.2292 90.508 12.8452 90.74 12.4292 90.892C12.0132 91.044 11.4972 91.12 10.8812 91.12C10.2972 91.12 9.74917 91.016 9.23717 90.808C8.73317 90.592 8.28917 90.292 7.90517 89.908C7.52117 89.516 7.22117 89.056 7.00517 88.528C6.78917 88 6.68117 87.424 6.68117 86.8C6.68117 86.176 6.78917 85.6 7.00517 85.072C7.22117 84.544 7.52117 84.088 7.90517 83.704C8.28917 83.312 8.73317 83.012 9.23717 82.804C9.74917 82.588 10.2972 82.48 10.8812 82.48C11.4972 82.48 12.0132 82.556 12.4292 82.708C12.8452 82.86 13.2292 83.092 13.5812 83.404V84.748C13.3892 84.5 13.1572 84.284 12.8852 84.1C12.6132 83.908 12.3092 83.76 11.9732 83.656C11.6452 83.552 11.2812 83.5 10.8812 83.5C10.3292 83.5 9.81717 83.64 9.34517 83.92C8.87317 84.2 8.48917 84.588 8.19317 85.084C7.90517 85.572 7.76117 86.144 7.76117 86.8ZM16.276 85.48V91H15.316V85.48H16.276ZM17.944 86.536C17.816 86.44 17.7 86.372 17.596 86.332C17.492 86.284 17.36 86.26 17.2 86.26C16.96 86.26 16.772 86.32 16.636 86.44C16.5 86.56 16.404 86.724 16.348 86.932C16.3 87.14 16.276 87.376 16.276 87.64H15.844C15.844 87.2 15.92 86.812 16.072 86.476C16.232 86.132 16.436 85.86 16.684 85.66C16.932 85.46 17.184 85.36 17.44 85.36C17.64 85.36 17.824 85.388 17.992 85.444C18.168 85.492 18.328 85.592 18.472 85.744L17.944 86.536ZM21.3895 91.12C20.8775 91.12 20.4215 91 20.0215 90.76C19.6295 90.512 19.3215 90.172 19.0975 89.74C18.8815 89.308 18.7735 88.808 18.7735 88.24C18.7735 87.664 18.8855 87.16 19.1095 86.728C19.3415 86.296 19.6615 85.96 20.0695 85.72C20.4855 85.48 20.9655 85.36 21.5095 85.36C22.0535 85.36 22.5175 85.476 22.9015 85.708C23.2935 85.932 23.5935 86.256 23.8015 86.68C24.0095 87.104 24.1135 87.608 24.1135 88.192C24.1135 88.248 24.1095 88.308 24.1015 88.372C24.1015 88.428 24.1015 88.464 24.1015 88.48H19.3855V87.664H23.3455L22.9615 88.216C22.9855 88.176 23.0095 88.116 23.0335 88.036C23.0575 87.948 23.0695 87.876 23.0695 87.82C23.0695 87.492 23.0015 87.208 22.8655 86.968C22.7375 86.728 22.5575 86.54 22.3255 86.404C22.0935 86.268 21.8215 86.2 21.5095 86.2C21.1415 86.2 20.8255 86.28 20.5615 86.44C20.3055 86.592 20.1055 86.816 19.9615 87.112C19.8255 87.4 19.7535 87.756 19.7455 88.18C19.7455 88.612 19.8135 88.98 19.9495 89.284C20.0855 89.588 20.2855 89.82 20.5495 89.98C20.8135 90.14 21.1335 90.22 21.5095 90.22C21.8855 90.22 22.2175 90.14 22.5055 89.98C22.7935 89.812 23.0375 89.56 23.2375 89.224L24.0175 89.716C23.7295 90.18 23.3655 90.532 22.9255 90.772C22.4935 91.004 21.9815 91.12 21.3895 91.12ZM25.8613 89.296C25.8613 89.504 25.9093 89.684 26.0053 89.836C26.1093 89.988 26.2493 90.104 26.4253 90.184C26.6093 90.256 26.8173 90.292 27.0493 90.292C27.3453 90.292 27.6093 90.232 27.8413 90.112C28.0813 89.992 28.2693 89.824 28.4053 89.608C28.5493 89.384 28.6213 89.128 28.6213 88.84L28.8133 89.56C28.8133 89.912 28.7053 90.204 28.4893 90.436C28.2813 90.668 28.0213 90.84 27.7093 90.952C27.4053 91.064 27.1013 91.12 26.7973 91.12C26.4613 91.12 26.1453 91.052 25.8493 90.916C25.5613 90.772 25.3293 90.568 25.1533 90.304C24.9773 90.04 24.8893 89.72 24.8893 89.344C24.8893 88.808 25.0773 88.38 25.4533 88.06C25.8373 87.732 26.3693 87.568 27.0493 87.568C27.4493 87.568 27.7813 87.616 28.0453 87.712C28.3173 87.8 28.5333 87.904 28.6933 88.024C28.8533 88.136 28.9613 88.228 29.0173 88.3V88.864C28.7373 88.672 28.4493 88.536 28.1533 88.456C27.8573 88.368 27.5413 88.324 27.2053 88.324C26.8933 88.324 26.6373 88.364 26.4373 88.444C26.2453 88.524 26.1013 88.636 26.0053 88.78C25.9093 88.924 25.8613 89.096 25.8613 89.296ZM25.7173 86.752L25.2493 86.044C25.4573 85.892 25.7413 85.74 26.1013 85.588C26.4693 85.436 26.9093 85.36 27.4213 85.36C27.8533 85.36 28.2293 85.428 28.5493 85.564C28.8773 85.692 29.1293 85.88 29.3053 86.128C29.4893 86.376 29.5813 86.68 29.5813 87.04V91H28.6213V87.172C28.6213 86.98 28.5893 86.824 28.5253 86.704C28.4613 86.576 28.3693 86.476 28.2493 86.404C28.1373 86.332 28.0053 86.28 27.8533 86.248C27.7013 86.216 27.5413 86.2 27.3733 86.2C27.1013 86.2 26.8533 86.232 26.6293 86.296C26.4133 86.36 26.2293 86.436 26.0773 86.524C25.9253 86.612 25.8053 86.688 25.7173 86.752ZM30.3666 85.48H33.1266V86.38H30.3666V85.48ZM31.2666 83.56H32.2266V91H31.2666V83.56ZM36.2255 91.12C35.7135 91.12 35.2575 91 34.8575 90.76C34.4655 90.512 34.1575 90.172 33.9335 89.74C33.7175 89.308 33.6095 88.808 33.6095 88.24C33.6095 87.664 33.7215 87.16 33.9455 86.728C34.1775 86.296 34.4975 85.96 34.9055 85.72C35.3215 85.48 35.8015 85.36 36.3455 85.36C36.8895 85.36 37.3535 85.476 37.7375 85.708C38.1295 85.932 38.4295 86.256 38.6375 86.68C38.8455 87.104 38.9495 87.608 38.9495 88.192C38.9495 88.248 38.9455 88.308 38.9375 88.372C38.9375 88.428 38.9375 88.464 38.9375 88.48H34.2215V87.664H38.1815L37.7975 88.216C37.8215 88.176 37.8455 88.116 37.8695 88.036C37.8935 87.948 37.9055 87.876 37.9055 87.82C37.9055 87.492 37.8375 87.208 37.7015 86.968C37.5735 86.728 37.3935 86.54 37.1615 86.404C36.9295 86.268 36.6575 86.2 36.3455 86.2C35.9775 86.2 35.6615 86.28 35.3975 86.44C35.1415 86.592 34.9415 86.816 34.7975 87.112C34.6615 87.4 34.5895 87.756 34.5815 88.18C34.5815 88.612 34.6495 88.98 34.7855 89.284C34.9215 89.588 35.1215 89.82 35.3855 89.98C35.6495 90.14 35.9695 90.22 36.3455 90.22C36.7215 90.22 37.0535 90.14 37.3415 89.98C37.6295 89.812 37.8735 89.56 38.0735 89.224L38.8535 89.716C38.5655 90.18 38.2015 90.532 37.7615 90.772C37.3295 91.004 36.8175 91.12 36.2255 91.12ZM44.2949 89.296C44.2949 89.504 44.3429 89.684 44.4389 89.836C44.5429 89.988 44.6829 90.104 44.8589 90.184C45.0429 90.256 45.2509 90.292 45.4829 90.292C45.7789 90.292 46.0429 90.232 46.2749 90.112C46.5149 89.992 46.7029 89.824 46.8389 89.608C46.9829 89.384 47.0549 89.128 47.0549 88.84L47.2469 89.56C47.2469 89.912 47.1389 90.204 46.9229 90.436C46.7149 90.668 46.4549 90.84 46.1429 90.952C45.8389 91.064 45.5349 91.12 45.2309 91.12C44.8949 91.12 44.5789 91.052 44.2829 90.916C43.9949 90.772 43.7629 90.568 43.5869 90.304C43.4109 90.04 43.3229 89.72 43.3229 89.344C43.3229 88.808 43.5109 88.38 43.8869 88.06C44.2709 87.732 44.8029 87.568 45.4829 87.568C45.8829 87.568 46.2149 87.616 46.4789 87.712C46.7509 87.8 46.9669 87.904 47.1269 88.024C47.2869 88.136 47.3949 88.228 47.4509 88.3V88.864C47.1709 88.672 46.8829 88.536 46.5869 88.456C46.2909 88.368 45.9749 88.324 45.6389 88.324C45.3269 88.324 45.0709 88.364 44.8709 88.444C44.6789 88.524 44.5349 88.636 44.4389 88.78C44.3429 88.924 44.2949 89.096 44.2949 89.296ZM44.1509 86.752L43.6829 86.044C43.8909 85.892 44.1749 85.74 44.5349 85.588C44.9029 85.436 45.3429 85.36 45.8549 85.36C46.2869 85.36 46.6629 85.428 46.9829 85.564C47.3109 85.692 47.5629 85.88 47.7389 86.128C47.9229 86.376 48.0149 86.68 48.0149 87.04V91H47.0549V87.172C47.0549 86.98 47.0229 86.824 46.9589 86.704C46.8949 86.576 46.8029 86.476 46.6829 86.404C46.5709 86.332 46.4389 86.28 46.2869 86.248C46.1349 86.216 45.9749 86.2 45.8069 86.2C45.5349 86.2 45.2869 86.232 45.0629 86.296C44.8469 86.36 44.6629 86.436 44.5109 86.524C44.3589 86.612 44.2389 86.688 44.1509 86.752ZM56.7779 87.64C56.7779 87.184 56.6779 86.84 56.4779 86.608C56.2779 86.376 55.9859 86.26 55.6019 86.26C55.3219 86.26 55.0739 86.32 54.8579 86.44C54.6499 86.552 54.4859 86.712 54.3659 86.92C54.2539 87.128 54.1979 87.368 54.1979 87.64V91H53.2379V85.48H54.1979V86.344C54.3819 86.008 54.6099 85.76 54.8819 85.6C55.1619 85.44 55.4819 85.36 55.8419 85.36C56.4259 85.36 56.8859 85.556 57.2219 85.948C57.5659 86.332 57.7379 86.856 57.7379 87.52V91H56.7779V87.64ZM61.6786 91.12C61.1666 91.12 60.7106 91 60.3106 90.76C59.9186 90.512 59.6106 90.172 59.3866 89.74C59.1706 89.308 59.0626 88.808 59.0626 88.24C59.0626 87.664 59.1746 87.16 59.3986 86.728C59.6306 86.296 59.9506 85.96 60.3586 85.72C60.7746 85.48 61.2546 85.36 61.7986 85.36C62.3426 85.36 62.8066 85.476 63.1906 85.708C63.5826 85.932 63.8826 86.256 64.0906 86.68C64.2986 87.104 64.4026 87.608 64.4026 88.192C64.4026 88.248 64.3986 88.308 64.3906 88.372C64.3906 88.428 64.3906 88.464 64.3906 88.48H59.6746V87.664H63.6346L63.2506 88.216C63.2746 88.176 63.2986 88.116 63.3226 88.036C63.3466 87.948 63.3586 87.876 63.3586 87.82C63.3586 87.492 63.2906 87.208 63.1546 86.968C63.0266 86.728 62.8466 86.54 62.6146 86.404C62.3826 86.268 62.1106 86.2 61.7986 86.2C61.4306 86.2 61.1146 86.28 60.8506 86.44C60.5946 86.592 60.3946 86.816 60.2506 87.112C60.1146 87.4 60.0426 87.756 60.0346 88.18C60.0346 88.612 60.1026 88.98 60.2386 89.284C60.3746 89.588 60.5746 89.82 60.8386 89.98C61.1026 90.14 61.4226 90.22 61.7986 90.22C62.1746 90.22 62.5066 90.14 62.7946 89.98C63.0826 89.812 63.3266 89.56 63.5266 89.224L64.3066 89.716C64.0186 90.18 63.6546 90.532 63.2146 90.772C62.7826 91.004 62.2706 91.12 61.6786 91.12ZM64.7026 85.48H65.7826L67.1626 89.068L68.6626 85.06L70.2706 89.092L71.6626 85.48H72.7426L70.3426 91.42L68.6746 87.4L67.1026 91.42L64.7026 85.48ZM2.39244 100.2C2.39244 100.016 2.45644 99.864 2.58444 99.744C2.71244 99.616 2.86444 99.552 3.04044 99.552C3.22444 99.552 3.37644 99.616 3.49644 99.744C3.62444 99.864 3.68844 100.016 3.68844 100.2C3.68844 100.376 3.62444 100.528 3.49644 100.656C3.37644 100.784 3.22444 100.848 3.04044 100.848C2.86444 100.848 2.71244 100.784 2.58444 100.656C2.45644 100.528 2.39244 100.376 2.39244 100.2ZM1.44444 109.368C1.50844 109.464 1.58844 109.54 1.68444 109.596C1.78844 109.652 1.90444 109.68 2.03244 109.68C2.16844 109.68 2.27644 109.644 2.35644 109.572C2.44444 109.5 2.50844 109.384 2.54844 109.224C2.58844 109.064 2.60844 108.856 2.60844 108.6V102.48H3.56844V108.72C3.56844 109.12 3.50444 109.464 3.37644 109.752C3.25644 110.04 3.07644 110.26 2.83644 110.412C2.59644 110.564 2.30844 110.64 1.97244 110.64C1.81244 110.64 1.66844 110.62 1.54044 110.58C1.41244 110.548 1.29644 110.496 1.19244 110.424C1.08844 110.352 0.996437 110.264 0.916437 110.16L1.44444 109.368ZM5.06844 105.24C5.06844 104.68 5.19244 104.184 5.44044 103.752C5.69644 103.32 6.04044 102.98 6.47244 102.732C6.90444 102.484 7.38844 102.36 7.92444 102.36C8.46844 102.36 8.95244 102.484 9.37644 102.732C9.80844 102.98 10.1484 103.32 10.3964 103.752C10.6524 104.184 10.7804 104.68 10.7804 105.24C10.7804 105.792 10.6524 106.288 10.3964 106.728C10.1484 107.16 9.80844 107.5 9.37644 107.748C8.95244 107.996 8.46844 108.12 7.92444 108.12C7.38844 108.12 6.90444 107.996 6.47244 107.748C6.04044 107.5 5.69644 107.16 5.44044 106.728C5.19244 106.288 5.06844 105.792 5.06844 105.24ZM6.04044 105.24C6.04044 105.624 6.12044 105.964 6.28044 106.26C6.44844 106.556 6.67244 106.792 6.95244 106.968C7.24044 107.136 7.56444 107.22 7.92444 107.22C8.28444 107.22 8.60444 107.136 8.88444 106.968C9.17244 106.792 9.39644 106.556 9.55644 106.26C9.72444 105.964 9.80844 105.624 9.80844 105.24C9.80844 104.856 9.72444 104.516 9.55644 104.22C9.39644 103.916 9.17244 103.68 8.88444 103.512C8.60444 103.344 8.28444 103.26 7.92444 103.26C7.56444 103.26 7.24044 103.344 6.95244 103.512C6.67244 103.68 6.44844 103.916 6.28044 104.22C6.12044 104.516 6.04044 104.856 6.04044 105.24ZM12.9992 98.64V108H12.0392V98.64H12.9992ZM17.6192 105.24C17.6192 105.832 17.4952 106.344 17.2472 106.776C16.9992 107.208 16.6672 107.54 16.2512 107.772C15.8432 108.004 15.3872 108.12 14.8832 108.12C14.4272 108.12 14.0232 108.004 13.6712 107.772C13.3272 107.54 13.0552 107.208 12.8552 106.776C12.6632 106.344 12.5672 105.832 12.5672 105.24C12.5672 104.64 12.6632 104.128 12.8552 103.704C13.0552 103.272 13.3272 102.94 13.6712 102.708C14.0232 102.476 14.4272 102.36 14.8832 102.36C15.3872 102.36 15.8432 102.476 16.2512 102.708C16.6672 102.94 16.9992 103.272 17.2472 103.704C17.4952 104.128 17.6192 104.64 17.6192 105.24ZM16.6472 105.24C16.6472 104.816 16.5592 104.456 16.3832 104.16C16.2152 103.864 15.9872 103.64 15.6992 103.488C15.4192 103.336 15.1072 103.26 14.7632 103.26C14.4832 103.26 14.2072 103.336 13.9352 103.488C13.6632 103.64 13.4392 103.864 13.2632 104.16C13.0872 104.456 12.9992 104.816 12.9992 105.24C12.9992 105.664 13.0872 106.024 13.2632 106.32C13.4392 106.616 13.6632 106.84 13.9352 106.992C14.2072 107.144 14.4832 107.22 14.7632 107.22C15.1072 107.22 15.4192 107.144 15.6992 106.992C15.9872 106.84 16.2152 106.616 16.3832 106.32C16.5592 106.024 16.6472 105.664 16.6472 105.24ZM22.9726 106.296C22.9726 106.504 23.0206 106.684 23.1166 106.836C23.2206 106.988 23.3606 107.104 23.5366 107.184C23.7206 107.256 23.9286 107.292 24.1606 107.292C24.4566 107.292 24.7206 107.232 24.9526 107.112C25.1926 106.992 25.3806 106.824 25.5166 106.608C25.6606 106.384 25.7326 106.128 25.7326 105.84L25.9246 106.56C25.9246 106.912 25.8166 107.204 25.6006 107.436C25.3926 107.668 25.1326 107.84 24.8206 107.952C24.5166 108.064 24.2126 108.12 23.9086 108.12C23.5726 108.12 23.2566 108.052 22.9606 107.916C22.6726 107.772 22.4406 107.568 22.2646 107.304C22.0886 107.04 22.0006 106.72 22.0006 106.344C22.0006 105.808 22.1886 105.38 22.5646 105.06C22.9486 104.732 23.4806 104.568 24.1606 104.568C24.5606 104.568 24.8926 104.616 25.1566 104.712C25.4286 104.8 25.6446 104.904 25.8046 105.024C25.9646 105.136 26.0726 105.228 26.1286 105.3V105.864C25.8486 105.672 25.5606 105.536 25.2646 105.456C24.9686 105.368 24.6526 105.324 24.3166 105.324C24.0046 105.324 23.7486 105.364 23.5486 105.444C23.3566 105.524 23.2126 105.636 23.1166 105.78C23.0206 105.924 22.9726 106.096 22.9726 106.296ZM22.8286 103.752L22.3606 103.044C22.5686 102.892 22.8526 102.74 23.2126 102.588C23.5806 102.436 24.0206 102.36 24.5326 102.36C24.9646 102.36 25.3406 102.428 25.6606 102.564C25.9886 102.692 26.2406 102.88 26.4166 103.128C26.6006 103.376 26.6926 103.68 26.6926 104.04V108H25.7326V104.172C25.7326 103.98 25.7006 103.824 25.6366 103.704C25.5726 103.576 25.4806 103.476 25.3606 103.404C25.2486 103.332 25.1166 103.28 24.9646 103.248C24.8126 103.216 24.6526 103.2 24.4846 103.2C24.2126 103.2 23.9646 103.232 23.7406 103.296C23.5246 103.36 23.3406 103.436 23.1886 103.524C23.0366 103.612 22.9166 103.688 22.8286 103.752ZM29.218 110.64H28.258V102.48H29.218V110.64ZM33.838 105.24C33.838 105.832 33.714 106.344 33.466 106.776C33.218 107.208 32.886 107.54 32.47 107.772C32.062 108.004 31.606 108.12 31.102 108.12C30.646 108.12 30.242 108.004 29.89 107.772C29.546 107.54 29.274 107.208 29.074 106.776C28.882 106.344 28.786 105.832 28.786 105.24C28.786 104.64 28.882 104.128 29.074 103.704C29.274 103.272 29.546 102.94 29.89 102.708C30.242 102.476 30.646 102.36 31.102 102.36C31.606 102.36 32.062 102.476 32.47 102.708C32.886 102.94 33.218 103.272 33.466 103.704C33.714 104.128 33.838 104.64 33.838 105.24ZM32.866 105.24C32.866 104.816 32.778 104.456 32.602 104.16C32.434 103.864 32.206 103.64 31.918 103.488C31.638 103.336 31.326 103.26 30.982 103.26C30.702 103.26 30.426 103.336 30.154 103.488C29.882 103.64 29.658 103.864 29.482 104.16C29.306 104.456 29.218 104.816 29.218 105.24C29.218 105.664 29.306 106.024 29.482 106.32C29.658 106.616 29.882 106.84 30.154 106.992C30.426 107.144 30.702 107.22 30.982 107.22C31.326 107.22 31.638 107.144 31.918 106.992C32.206 106.84 32.434 106.616 32.602 106.32C32.778 106.024 32.866 105.664 32.866 105.24ZM36.0617 110.64H35.1017V102.48H36.0617V110.64ZM40.6817 105.24C40.6817 105.832 40.5577 106.344 40.3097 106.776C40.0617 107.208 39.7297 107.54 39.3137 107.772C38.9057 108.004 38.4497 108.12 37.9457 108.12C37.4897 108.12 37.0857 108.004 36.7337 107.772C36.3897 107.54 36.1177 107.208 35.9177 106.776C35.7257 106.344 35.6297 105.832 35.6297 105.24C35.6297 104.64 35.7257 104.128 35.9177 103.704C36.1177 103.272 36.3897 102.94 36.7337 102.708C37.0857 102.476 37.4897 102.36 37.9457 102.36C38.4497 102.36 38.9057 102.476 39.3137 102.708C39.7297 102.94 40.0617 103.272 40.3097 103.704C40.5577 104.128 40.6817 104.64 40.6817 105.24ZM39.7097 105.24C39.7097 104.816 39.6217 104.456 39.4457 104.16C39.2777 103.864 39.0497 103.64 38.7617 103.488C38.4817 103.336 38.1697 103.26 37.8257 103.26C37.5457 103.26 37.2697 103.336 36.9977 103.488C36.7257 103.64 36.5017 103.864 36.3257 104.16C36.1497 104.456 36.0617 104.816 36.0617 105.24C36.0617 105.664 36.1497 106.024 36.3257 106.32C36.5017 106.616 36.7257 106.84 36.9977 106.992C37.2697 107.144 37.5457 107.22 37.8257 107.22C38.1697 107.22 38.4817 107.144 38.7617 106.992C39.0497 106.84 39.2777 106.616 39.4457 106.32C39.6217 106.024 39.7097 105.664 39.7097 105.24ZM42.0055 98.64H42.9655V108H42.0055V98.64ZM44.7711 100.2C44.7711 100.016 44.8351 99.86 44.9631 99.732C45.0991 99.604 45.2551 99.54 45.4311 99.54C45.6151 99.54 45.7711 99.604 45.8991 99.732C46.0271 99.86 46.0911 100.016 46.0911 100.2C46.0911 100.376 46.0271 100.532 45.8991 100.668C45.7711 100.796 45.6151 100.86 45.4311 100.86C45.2551 100.86 45.0991 100.796 44.9631 100.668C44.8351 100.532 44.7711 100.376 44.7711 100.2ZM44.9511 102.48H45.9111V108H44.9511V102.48ZM48.3203 105.24C48.3203 105.624 48.4003 105.964 48.5603 106.26C48.7283 106.556 48.9523 106.792 49.2323 106.968C49.5203 107.136 49.8443 107.22 50.2043 107.22C50.5003 107.22 50.7763 107.176 51.0323 107.088C51.2963 106.992 51.5243 106.868 51.7163 106.716C51.9083 106.556 52.0443 106.388 52.1243 106.212V107.412C51.9323 107.636 51.6563 107.812 51.2963 107.94C50.9443 108.06 50.5803 108.12 50.2043 108.12C49.6683 108.12 49.1843 107.996 48.7523 107.748C48.3203 107.5 47.9763 107.16 47.7203 106.728C47.4723 106.288 47.3483 105.792 47.3483 105.24C47.3483 104.68 47.4723 104.184 47.7203 103.752C47.9763 103.32 48.3203 102.98 48.7523 102.732C49.1843 102.484 49.6683 102.36 50.2043 102.36C50.5803 102.36 50.9443 102.424 51.2963 102.552C51.6563 102.672 51.9323 102.844 52.1243 103.068V104.268C52.0443 104.084 51.9083 103.916 51.7163 103.764C51.5243 103.612 51.2963 103.492 51.0323 103.404C50.7763 103.308 50.5003 103.26 50.2043 103.26C49.8443 103.26 49.5203 103.344 49.2323 103.512C48.9523 103.68 48.7283 103.916 48.5603 104.22C48.4003 104.516 48.3203 104.856 48.3203 105.24ZM54.0508 106.296C54.0508 106.504 54.0988 106.684 54.1948 106.836C54.2988 106.988 54.4388 107.104 54.6148 107.184C54.7988 107.256 55.0068 107.292 55.2388 107.292C55.5348 107.292 55.7988 107.232 56.0308 107.112C56.2708 106.992 56.4588 106.824 56.5948 106.608C56.7388 106.384 56.8108 106.128 56.8108 105.84L57.0028 106.56C57.0028 106.912 56.8948 107.204 56.6788 107.436C56.4708 107.668 56.2108 107.84 55.8988 107.952C55.5948 108.064 55.2908 108.12 54.9868 108.12C54.6508 108.12 54.3348 108.052 54.0388 107.916C53.7508 107.772 53.5188 107.568 53.3428 107.304C53.1668 107.04 53.0788 106.72 53.0788 106.344C53.0788 105.808 53.2668 105.38 53.6428 105.06C54.0268 104.732 54.5588 104.568 55.2388 104.568C55.6388 104.568 55.9708 104.616 56.2348 104.712C56.5068 104.8 56.7228 104.904 56.8828 105.024C57.0428 105.136 57.1508 105.228 57.2068 105.3V105.864C56.9268 105.672 56.6388 105.536 56.3428 105.456C56.0468 105.368 55.7308 105.324 55.3948 105.324C55.0828 105.324 54.8268 105.364 54.6268 105.444C54.4348 105.524 54.2908 105.636 54.1948 105.78C54.0988 105.924 54.0508 106.096 54.0508 106.296ZM53.9068 103.752L53.4388 103.044C53.6468 102.892 53.9308 102.74 54.2908 102.588C54.6588 102.436 55.0988 102.36 55.6108 102.36C56.0428 102.36 56.4188 102.428 56.7388 102.564C57.0668 102.692 57.3188 102.88 57.4948 103.128C57.6788 103.376 57.7708 103.68 57.7708 104.04V108H56.8108V104.172C56.8108 103.98 56.7788 103.824 56.7148 103.704C56.6508 103.576 56.5588 103.476 56.4388 103.404C56.3268 103.332 56.1948 103.28 56.0428 103.248C55.8908 103.216 55.7308 103.2 55.5628 103.2C55.2908 103.2 55.0428 103.232 54.8188 103.296C54.6028 103.36 54.4188 103.436 54.2668 103.524C54.1148 103.612 53.9948 103.688 53.9068 103.752ZM58.5561 102.48H61.3161V103.38H58.5561V102.48ZM59.4561 100.56H60.4161V108H59.4561V100.56ZM62.2789 100.2C62.2789 100.016 62.3429 99.86 62.4709 99.732C62.6069 99.604 62.7629 99.54 62.9389 99.54C63.1229 99.54 63.2789 99.604 63.4069 99.732C63.5349 99.86 63.5989 100.016 63.5989 100.2C63.5989 100.376 63.5349 100.532 63.4069 100.668C63.2789 100.796 63.1229 100.86 62.9389 100.86C62.7629 100.86 62.6069 100.796 62.4709 100.668C62.3429 100.532 62.2789 100.376 62.2789 100.2ZM62.4589 102.48H63.4189V108H62.4589V102.48ZM64.9161 105.24C64.9161 104.68 65.0401 104.184 65.2881 103.752C65.5441 103.32 65.8881 102.98 66.3201 102.732C66.7521 102.484 67.2361 102.36 67.7721 102.36C68.3161 102.36 68.8001 102.484 69.2241 102.732C69.6561 102.98 69.9961 103.32 70.2441 103.752C70.5001 104.184 70.6281 104.68 70.6281 105.24C70.6281 105.792 70.5001 106.288 70.2441 106.728C69.9961 107.16 69.6561 107.5 69.2241 107.748C68.8001 107.996 68.3161 108.12 67.7721 108.12C67.2361 108.12 66.7521 107.996 66.3201 107.748C65.8881 107.5 65.5441 107.16 65.2881 106.728C65.0401 106.288 64.9161 105.792 64.9161 105.24ZM65.8881 105.24C65.8881 105.624 65.9681 105.964 66.1281 106.26C66.2961 106.556 66.5201 106.792 66.8001 106.968C67.0881 107.136 67.4121 107.22 67.7721 107.22C68.1321 107.22 68.4521 107.136 68.7321 106.968C69.0201 106.792 69.2441 106.556 69.4041 106.26C69.5721 105.964 69.6561 105.624 69.6561 105.24C69.6561 104.856 69.5721 104.516 69.4041 104.22C69.2441 103.916 69.0201 103.68 68.7321 103.512C68.4521 103.344 68.1321 103.26 67.7721 103.26C67.4121 103.26 67.0881 103.344 66.8001 103.512C66.5201 103.68 66.2961 103.916 66.1281 104.22C65.9681 104.516 65.8881 104.856 65.8881 105.24ZM75.4869 104.64C75.4869 104.184 75.3869 103.84 75.1869 103.608C74.9869 103.376 74.6949 103.26 74.3109 103.26C74.0309 103.26 73.7829 103.32 73.5669 103.44C73.3589 103.552 73.1949 103.712 73.0749 103.92C72.9629 104.128 72.9069 104.368 72.9069 104.64V108H71.9469V102.48H72.9069V103.344C73.0909 103.008 73.3189 102.76 73.5909 102.6C73.8709 102.44 74.1909 102.36 74.5509 102.36C75.1349 102.36 75.5949 102.556 75.9309 102.948C76.2749 103.332 76.4469 103.856 76.4469 104.52V108H75.4869V104.64Z" fill="black"/>
<rect x="211" y="175" width="100" height="64" rx="4" fill="#86EFAC"/>
<path d="M223.346 187.688V185.882H230.542V187.688H223.346ZM229.268 182.2H231.27V192H229.268V182.2ZM222.688 182.2H224.69V192H222.688V182.2ZM234.499 189.998C234.499 190.185 234.546 190.348 234.639 190.488C234.733 190.619 234.859 190.721 235.017 190.796C235.185 190.861 235.367 190.894 235.563 190.894C235.843 190.894 236.095 190.838 236.319 190.726C236.543 190.605 236.725 190.437 236.865 190.222C237.005 189.998 237.075 189.732 237.075 189.424L237.299 190.264C237.299 190.675 237.183 191.02 236.949 191.3C236.725 191.58 236.431 191.79 236.067 191.93C235.713 192.07 235.339 192.14 234.947 192.14C234.546 192.14 234.173 192.061 233.827 191.902C233.482 191.743 233.202 191.515 232.987 191.216C232.782 190.908 232.679 190.535 232.679 190.096C232.679 189.471 232.899 188.976 233.337 188.612C233.776 188.248 234.397 188.066 235.199 188.066C235.61 188.066 235.969 188.108 236.277 188.192C236.595 188.276 236.861 188.379 237.075 188.5C237.29 188.621 237.444 188.738 237.537 188.85V189.69C237.285 189.503 237.001 189.363 236.683 189.27C236.375 189.177 236.049 189.13 235.703 189.13C235.423 189.13 235.195 189.167 235.017 189.242C234.84 189.307 234.709 189.405 234.625 189.536C234.541 189.657 234.499 189.811 234.499 189.998ZM233.799 187.38L233.127 186.148C233.463 185.971 233.874 185.803 234.359 185.644C234.845 185.476 235.386 185.392 235.983 185.392C236.534 185.392 237.024 185.471 237.453 185.63C237.883 185.789 238.219 186.022 238.461 186.33C238.704 186.629 238.825 186.997 238.825 187.436V192H237.075V187.814C237.075 187.637 237.047 187.487 236.991 187.366C236.935 187.235 236.847 187.128 236.725 187.044C236.613 186.96 236.478 186.899 236.319 186.862C236.161 186.825 235.983 186.806 235.787 186.806C235.489 186.806 235.204 186.839 234.933 186.904C234.663 186.969 234.429 187.049 234.233 187.142C234.037 187.235 233.893 187.315 233.799 187.38ZM239.52 185.56H241.466L243.048 189.438L244.63 185.56H246.576L243.048 192.672L239.52 185.56ZM250.277 192.14C249.577 192.14 248.965 192 248.443 191.72C247.92 191.44 247.514 191.053 247.225 190.558C246.945 190.054 246.805 189.461 246.805 188.78C246.805 188.089 246.945 187.497 247.225 187.002C247.514 186.498 247.92 186.111 248.443 185.84C248.965 185.56 249.581 185.42 250.291 185.42C251 185.42 251.602 185.551 252.097 185.812C252.601 186.064 252.983 186.437 253.245 186.932C253.506 187.417 253.637 188.005 253.637 188.696C253.637 188.78 253.632 188.869 253.623 188.962C253.623 189.055 253.618 189.13 253.609 189.186H247.841V188.066H252.027L251.537 188.71C251.574 188.654 251.607 188.579 251.635 188.486C251.672 188.383 251.691 188.299 251.691 188.234C251.691 187.917 251.63 187.646 251.509 187.422C251.397 187.198 251.233 187.021 251.019 186.89C250.804 186.759 250.552 186.694 250.263 186.694C249.908 186.694 249.609 186.773 249.367 186.932C249.133 187.081 248.951 187.31 248.821 187.618C248.699 187.917 248.634 188.29 248.625 188.738C248.625 189.167 248.685 189.531 248.807 189.83C248.937 190.129 249.129 190.357 249.381 190.516C249.633 190.675 249.936 190.754 250.291 190.754C250.692 190.754 251.033 190.679 251.313 190.53C251.602 190.371 251.84 190.138 252.027 189.83L253.609 190.32C253.273 190.927 252.825 191.384 252.265 191.692C251.714 191.991 251.051 192.14 250.277 192.14ZM260.49 189.998C260.49 190.185 260.536 190.348 260.63 190.488C260.723 190.619 260.849 190.721 261.008 190.796C261.176 190.861 261.358 190.894 261.554 190.894C261.834 190.894 262.086 190.838 262.31 190.726C262.534 190.605 262.716 190.437 262.856 190.222C262.996 189.998 263.066 189.732 263.066 189.424L263.29 190.264C263.29 190.675 263.173 191.02 262.94 191.3C262.716 191.58 262.422 191.79 262.058 191.93C261.703 192.07 261.33 192.14 260.938 192.14C260.536 192.14 260.163 192.061 259.818 191.902C259.472 191.743 259.192 191.515 258.978 191.216C258.772 190.908 258.67 190.535 258.67 190.096C258.67 189.471 258.889 188.976 259.328 188.612C259.766 188.248 260.387 188.066 261.19 188.066C261.6 188.066 261.96 188.108 262.268 188.192C262.585 188.276 262.851 188.379 263.066 188.5C263.28 188.621 263.434 188.738 263.528 188.85V189.69C263.276 189.503 262.991 189.363 262.674 189.27C262.366 189.177 262.039 189.13 261.694 189.13C261.414 189.13 261.185 189.167 261.008 189.242C260.83 189.307 260.7 189.405 260.616 189.536C260.532 189.657 260.49 189.811 260.49 189.998ZM259.79 187.38L259.118 186.148C259.454 185.971 259.864 185.803 260.35 185.644C260.835 185.476 261.376 185.392 261.974 185.392C262.524 185.392 263.014 185.471 263.444 185.63C263.873 185.789 264.209 186.022 264.452 186.33C264.694 186.629 264.816 186.997 264.816 187.436V192H263.066V187.814C263.066 187.637 263.038 187.487 262.982 187.366C262.926 187.235 262.837 187.128 262.716 187.044C262.604 186.96 262.468 186.899 262.31 186.862C262.151 186.825 261.974 186.806 261.778 186.806C261.479 186.806 261.194 186.839 260.924 186.904C260.653 186.969 260.42 187.049 260.224 187.142C260.028 187.235 259.883 187.315 259.79 187.38ZM267.874 188.78C267.874 189.153 267.958 189.48 268.126 189.76C268.294 190.04 268.518 190.259 268.798 190.418C269.088 190.577 269.405 190.656 269.75 190.656C270.03 190.656 270.301 190.614 270.562 190.53C270.824 190.437 271.057 190.315 271.262 190.166C271.477 190.007 271.64 189.825 271.752 189.62V191.482C271.528 191.687 271.234 191.851 270.87 191.972C270.516 192.084 270.1 192.14 269.624 192.14C268.943 192.14 268.327 192 267.776 191.72C267.235 191.44 266.806 191.048 266.488 190.544C266.18 190.031 266.026 189.443 266.026 188.78C266.026 188.108 266.18 187.52 266.488 187.016C266.806 186.512 267.235 186.12 267.776 185.84C268.327 185.56 268.943 185.42 269.624 185.42C270.1 185.42 270.516 185.481 270.87 185.602C271.234 185.714 271.528 185.868 271.752 186.064V187.926C271.64 187.721 271.472 187.543 271.248 187.394C271.034 187.235 270.796 187.114 270.534 187.03C270.273 186.946 270.012 186.904 269.75 186.904C269.405 186.904 269.088 186.988 268.798 187.156C268.518 187.315 268.294 187.534 268.126 187.814C267.958 188.094 267.874 188.416 267.874 188.78ZM274.724 188.78C274.724 189.153 274.808 189.48 274.976 189.76C275.144 190.04 275.368 190.259 275.648 190.418C275.937 190.577 276.255 190.656 276.6 190.656C276.88 190.656 277.151 190.614 277.412 190.53C277.673 190.437 277.907 190.315 278.112 190.166C278.327 190.007 278.49 189.825 278.602 189.62V191.482C278.378 191.687 278.084 191.851 277.72 191.972C277.365 192.084 276.95 192.14 276.474 192.14C275.793 192.14 275.177 192 274.626 191.72C274.085 191.44 273.655 191.048 273.338 190.544C273.03 190.031 272.876 189.443 272.876 188.78C272.876 188.108 273.03 187.52 273.338 187.016C273.655 186.512 274.085 186.12 274.626 185.84C275.177 185.56 275.793 185.42 276.474 185.42C276.95 185.42 277.365 185.481 277.72 185.602C278.084 185.714 278.378 185.868 278.602 186.064V187.926C278.49 187.721 278.322 187.543 278.098 187.394C277.883 187.235 277.645 187.114 277.384 187.03C277.123 186.946 276.861 186.904 276.6 186.904C276.255 186.904 275.937 186.988 275.648 187.156C275.368 187.315 275.144 187.534 274.976 187.814C274.808 188.094 274.724 188.416 274.724 188.78ZM283.24 192.14C282.54 192.14 281.928 192 281.406 191.72C280.883 191.44 280.477 191.053 280.188 190.558C279.908 190.054 279.768 189.461 279.768 188.78C279.768 188.089 279.908 187.497 280.188 187.002C280.477 186.498 280.883 186.111 281.406 185.84C281.928 185.56 282.544 185.42 283.254 185.42C283.963 185.42 284.565 185.551 285.06 185.812C285.564 186.064 285.946 186.437 286.208 186.932C286.469 187.417 286.6 188.005 286.6 188.696C286.6 188.78 286.595 188.869 286.586 188.962C286.586 189.055 286.581 189.13 286.572 189.186H280.804V188.066H284.99L284.5 188.71C284.537 188.654 284.57 188.579 284.598 188.486C284.635 188.383 284.654 188.299 284.654 188.234C284.654 187.917 284.593 187.646 284.472 187.422C284.36 187.198 284.196 187.021 283.982 186.89C283.767 186.759 283.515 186.694 283.226 186.694C282.871 186.694 282.572 186.773 282.33 186.932C282.096 187.081 281.914 187.31 281.784 187.618C281.662 187.917 281.597 188.29 281.588 188.738C281.588 189.167 281.648 189.531 281.77 189.83C281.9 190.129 282.092 190.357 282.344 190.516C282.596 190.675 282.899 190.754 283.254 190.754C283.655 190.754 283.996 190.679 284.276 190.53C284.565 190.371 284.803 190.138 284.99 189.83L286.572 190.32C286.236 190.927 285.788 191.384 285.228 191.692C284.677 191.991 284.014 192.14 283.24 192.14ZM288.289 189.774C288.56 190.026 288.812 190.231 289.045 190.39C289.279 190.539 289.498 190.651 289.703 190.726C289.918 190.801 290.119 190.838 290.305 190.838C290.548 190.838 290.735 190.787 290.865 190.684C290.996 190.572 291.061 190.423 291.061 190.236C291.061 190.068 291.005 189.928 290.893 189.816C290.791 189.695 290.637 189.587 290.431 189.494C290.226 189.401 289.965 189.303 289.647 189.2C289.349 189.088 289.059 188.957 288.779 188.808C288.499 188.649 288.266 188.444 288.079 188.192C287.902 187.931 287.813 187.599 287.813 187.198C287.813 186.815 287.916 186.493 288.121 186.232C288.327 185.961 288.602 185.761 288.947 185.63C289.302 185.49 289.694 185.42 290.123 185.42C290.487 185.42 290.828 185.467 291.145 185.56C291.463 185.653 291.757 185.779 292.027 185.938C292.298 186.087 292.536 186.265 292.741 186.47L291.943 187.59C291.71 187.338 291.43 187.133 291.103 186.974C290.786 186.815 290.473 186.736 290.165 186.736C289.96 186.736 289.797 186.778 289.675 186.862C289.563 186.937 289.507 187.053 289.507 187.212C289.507 187.352 289.563 187.478 289.675 187.59C289.797 187.693 289.965 187.786 290.179 187.87C290.403 187.954 290.655 188.057 290.935 188.178C291.281 188.309 291.598 188.458 291.887 188.626C292.186 188.785 292.424 188.985 292.601 189.228C292.779 189.471 292.867 189.788 292.867 190.18C292.867 190.824 292.657 191.328 292.237 191.692C291.817 192.047 291.239 192.224 290.501 192.224C290.044 192.224 289.624 192.163 289.241 192.042C288.868 191.921 288.527 191.762 288.219 191.566C287.921 191.361 287.65 191.141 287.407 190.908L288.289 189.774ZM294.442 189.774C294.712 190.026 294.964 190.231 295.198 190.39C295.431 190.539 295.65 190.651 295.856 190.726C296.07 190.801 296.271 190.838 296.458 190.838C296.7 190.838 296.887 190.787 297.018 190.684C297.148 190.572 297.214 190.423 297.214 190.236C297.214 190.068 297.158 189.928 297.046 189.816C296.943 189.695 296.789 189.587 296.584 189.494C296.378 189.401 296.117 189.303 295.8 189.2C295.501 189.088 295.212 188.957 294.932 188.808C294.652 188.649 294.418 188.444 294.232 188.192C294.054 187.931 293.966 187.599 293.966 187.198C293.966 186.815 294.068 186.493 294.274 186.232C294.479 185.961 294.754 185.761 295.1 185.63C295.454 185.49 295.846 185.42 296.276 185.42C296.64 185.42 296.98 185.467 297.298 185.56C297.615 185.653 297.909 185.779 298.18 185.938C298.45 186.087 298.688 186.265 298.894 186.47L298.096 187.59C297.862 187.338 297.582 187.133 297.256 186.974C296.938 186.815 296.626 186.736 296.318 186.736C296.112 186.736 295.949 186.778 295.828 186.862C295.716 186.937 295.66 187.053 295.66 187.212C295.66 187.352 295.716 187.478 295.828 187.59C295.949 187.693 296.117 187.786 296.332 187.87C296.556 187.954 296.808 188.057 297.088 188.178C297.433 188.309 297.75 188.458 298.04 188.626C298.338 188.785 298.576 188.985 298.754 189.228C298.931 189.471 299.02 189.788 299.02 190.18C299.02 190.824 298.81 191.328 298.39 191.692C297.97 192.047 297.391 192.224 296.654 192.224C296.196 192.224 295.776 192.163 295.394 192.042C295.02 191.921 294.68 191.762 294.372 191.566C294.073 191.361 293.802 191.141 293.56 190.908L294.442 189.774ZM233.44 209.998C233.44 210.185 233.487 210.348 233.58 210.488C233.673 210.619 233.799 210.721 233.958 210.796C234.126 210.861 234.308 210.894 234.504 210.894C234.784 210.894 235.036 210.838 235.26 210.726C235.484 210.605 235.666 210.437 235.806 210.222C235.946 209.998 236.016 209.732 236.016 209.424L236.24 210.264C236.24 210.675 236.123 211.02 235.89 211.3C235.666 211.58 235.372 211.79 235.008 211.93C234.653 212.07 234.28 212.14 233.888 212.14C233.487 212.14 233.113 212.061 232.768 211.902C232.423 211.743 232.143 211.515 231.928 211.216C231.723 210.908 231.62 210.535 231.62 210.096C231.62 209.471 231.839 208.976 232.278 208.612C232.717 208.248 233.337 208.066 234.14 208.066C234.551 208.066 234.91 208.108 235.218 208.192C235.535 208.276 235.801 208.379 236.016 208.5C236.231 208.621 236.385 208.738 236.478 208.85V209.69C236.226 209.503 235.941 209.363 235.624 209.27C235.316 209.177 234.989 209.13 234.644 209.13C234.364 209.13 234.135 209.167 233.958 209.242C233.781 209.307 233.65 209.405 233.566 209.536C233.482 209.657 233.44 209.811 233.44 209.998ZM232.74 207.38L232.068 206.148C232.404 205.971 232.815 205.803 233.3 205.644C233.785 205.476 234.327 205.392 234.924 205.392C235.475 205.392 235.965 205.471 236.394 205.63C236.823 205.789 237.159 206.022 237.402 206.33C237.645 206.629 237.766 206.997 237.766 207.436V212H236.016V207.814C236.016 207.637 235.988 207.487 235.932 207.366C235.876 207.235 235.787 207.128 235.666 207.044C235.554 206.96 235.419 206.899 235.26 206.862C235.101 206.825 234.924 206.806 234.728 206.806C234.429 206.806 234.145 206.839 233.874 206.904C233.603 206.969 233.37 207.049 233.174 207.142C232.978 207.235 232.833 207.315 232.74 207.38ZM240.825 208.78C240.825 209.153 240.909 209.48 241.077 209.76C241.245 210.04 241.469 210.259 241.749 210.418C242.038 210.577 242.355 210.656 242.701 210.656C242.981 210.656 243.251 210.614 243.513 210.53C243.774 210.437 244.007 210.315 244.213 210.166C244.427 210.007 244.591 209.825 244.703 209.62V211.482C244.479 211.687 244.185 211.851 243.821 211.972C243.466 212.084 243.051 212.14 242.575 212.14C241.893 212.14 241.277 212 240.727 211.72C240.185 211.44 239.756 211.048 239.439 210.544C239.131 210.031 238.977 209.443 238.977 208.78C238.977 208.108 239.131 207.52 239.439 207.016C239.756 206.512 240.185 206.12 240.727 205.84C241.277 205.56 241.893 205.42 242.575 205.42C243.051 205.42 243.466 205.481 243.821 205.602C244.185 205.714 244.479 205.868 244.703 206.064V207.926C244.591 207.721 244.423 207.543 244.199 207.394C243.984 207.235 243.746 207.114 243.485 207.03C243.223 206.946 242.962 206.904 242.701 206.904C242.355 206.904 242.038 206.988 241.749 207.156C241.469 207.315 241.245 207.534 241.077 207.814C240.909 208.094 240.825 208.416 240.825 208.78ZM248.08 205.56V212H246.302V205.56H248.08ZM249.97 207.45C249.849 207.338 249.723 207.254 249.592 207.198C249.471 207.133 249.317 207.1 249.13 207.1C248.906 207.1 248.715 207.161 248.556 207.282C248.398 207.403 248.276 207.576 248.192 207.8C248.118 208.015 248.08 208.276 248.08 208.584L247.576 208.08C247.576 207.567 247.674 207.114 247.87 206.722C248.066 206.321 248.323 206.003 248.64 205.77C248.958 205.527 249.284 205.406 249.62 205.406C249.854 205.406 250.073 205.448 250.278 205.532C250.493 205.616 250.666 205.742 250.796 205.91L249.97 207.45ZM251.118 208.78C251.118 208.108 251.272 207.52 251.58 207.016C251.898 206.512 252.322 206.12 252.854 205.84C253.396 205.56 254.007 205.42 254.688 205.42C255.37 205.42 255.976 205.56 256.508 205.84C257.05 206.12 257.474 206.512 257.782 207.016C258.1 207.52 258.258 208.108 258.258 208.78C258.258 209.443 258.1 210.031 257.782 210.544C257.474 211.048 257.05 211.44 256.508 211.72C255.976 212 255.37 212.14 254.688 212.14C254.007 212.14 253.396 212 252.854 211.72C252.322 211.44 251.898 211.048 251.58 210.544C251.272 210.031 251.118 209.443 251.118 208.78ZM252.966 208.78C252.966 209.144 253.041 209.466 253.19 209.746C253.349 210.017 253.559 210.231 253.82 210.39C254.082 210.539 254.371 210.614 254.688 210.614C255.006 210.614 255.295 210.539 255.556 210.39C255.818 210.231 256.023 210.017 256.172 209.746C256.331 209.466 256.41 209.144 256.41 208.78C256.41 208.416 256.331 208.094 256.172 207.814C256.023 207.534 255.818 207.319 255.556 207.17C255.295 207.021 255.006 206.946 254.688 206.946C254.371 206.946 254.082 207.021 253.82 207.17C253.559 207.319 253.349 207.534 253.19 207.814C253.041 208.094 252.966 208.416 252.966 208.78ZM259.941 209.774C260.211 210.026 260.463 210.231 260.697 210.39C260.93 210.539 261.149 210.651 261.355 210.726C261.569 210.801 261.77 210.838 261.957 210.838C262.199 210.838 262.386 210.787 262.517 210.684C262.647 210.572 262.713 210.423 262.713 210.236C262.713 210.068 262.657 209.928 262.545 209.816C262.442 209.695 262.288 209.587 262.083 209.494C261.877 209.401 261.616 209.303 261.299 209.2C261 209.088 260.711 208.957 260.431 208.808C260.151 208.649 259.917 208.444 259.731 208.192C259.553 207.931 259.465 207.599 259.465 207.198C259.465 206.815 259.567 206.493 259.773 206.232C259.978 205.961 260.253 205.761 260.599 205.63C260.953 205.49 261.345 205.42 261.775 205.42C262.139 205.42 262.479 205.467 262.797 205.56C263.114 205.653 263.408 205.779 263.679 205.938C263.949 206.087 264.187 206.265 264.393 206.47L263.595 207.59C263.361 207.338 263.081 207.133 262.755 206.974C262.437 206.815 262.125 206.736 261.817 206.736C261.611 206.736 261.448 206.778 261.327 206.862C261.215 206.937 261.159 207.053 261.159 207.212C261.159 207.352 261.215 207.478 261.327 207.59C261.448 207.693 261.616 207.786 261.831 207.87C262.055 207.954 262.307 208.057 262.587 208.178C262.932 208.309 263.249 208.458 263.539 208.626C263.837 208.785 264.075 208.985 264.253 209.228C264.43 209.471 264.519 209.788 264.519 210.18C264.519 210.824 264.309 211.328 263.889 211.692C263.469 212.047 262.89 212.224 262.153 212.224C261.695 212.224 261.275 212.163 260.893 212.042C260.519 211.921 260.179 211.762 259.871 211.566C259.572 211.361 259.301 211.141 259.059 210.908L259.941 209.774ZM266.093 209.774C266.364 210.026 266.616 210.231 266.849 210.39C267.082 210.539 267.302 210.651 267.507 210.726C267.722 210.801 267.922 210.838 268.109 210.838C268.352 210.838 268.538 210.787 268.669 210.684C268.8 210.572 268.865 210.423 268.865 210.236C268.865 210.068 268.809 209.928 268.697 209.816C268.594 209.695 268.44 209.587 268.235 209.494C268.03 209.401 267.768 209.303 267.451 209.2C267.152 209.088 266.863 208.957 266.583 208.808C266.303 208.649 266.07 208.444 265.883 208.192C265.706 207.931 265.617 207.599 265.617 207.198C265.617 206.815 265.72 206.493 265.925 206.232C266.13 205.961 266.406 205.761 266.751 205.63C267.106 205.49 267.498 205.42 267.927 205.42C268.291 205.42 268.632 205.467 268.949 205.56C269.266 205.653 269.56 205.779 269.831 205.938C270.102 206.087 270.34 206.265 270.545 206.47L269.747 207.59C269.514 207.338 269.234 207.133 268.907 206.974C268.59 206.815 268.277 206.736 267.969 206.736C267.764 206.736 267.6 206.778 267.479 206.862C267.367 206.937 267.311 207.053 267.311 207.212C267.311 207.352 267.367 207.478 267.479 207.59C267.6 207.693 267.768 207.786 267.983 207.87C268.207 207.954 268.459 208.057 268.739 208.178C269.084 208.309 269.402 208.458 269.691 208.626C269.99 208.785 270.228 208.985 270.405 209.228C270.582 209.471 270.671 209.788 270.671 210.18C270.671 210.824 270.461 211.328 270.041 211.692C269.621 212.047 269.042 212.224 268.305 212.224C267.848 212.224 267.428 212.163 267.045 212.042C266.672 211.921 266.331 211.762 266.023 211.566C265.724 211.361 265.454 211.141 265.211 210.908L266.093 209.774ZM277.409 209.998C277.409 210.185 277.455 210.348 277.549 210.488C277.642 210.619 277.768 210.721 277.927 210.796C278.095 210.861 278.277 210.894 278.473 210.894C278.753 210.894 279.005 210.838 279.229 210.726C279.453 210.605 279.635 210.437 279.775 210.222C279.915 209.998 279.985 209.732 279.985 209.424L280.209 210.264C280.209 210.675 280.092 211.02 279.859 211.3C279.635 211.58 279.341 211.79 278.977 211.93C278.622 212.07 278.249 212.14 277.857 212.14C277.455 212.14 277.082 212.061 276.737 211.902C276.391 211.743 276.111 211.515 275.897 211.216C275.691 210.908 275.589 210.535 275.589 210.096C275.589 209.471 275.808 208.976 276.247 208.612C276.685 208.248 277.306 208.066 278.109 208.066C278.519 208.066 278.879 208.108 279.187 208.192C279.504 208.276 279.77 208.379 279.985 208.5C280.199 208.621 280.353 208.738 280.447 208.85V209.69C280.195 209.503 279.91 209.363 279.593 209.27C279.285 209.177 278.958 209.13 278.613 209.13C278.333 209.13 278.104 209.167 277.927 209.242C277.749 209.307 277.619 209.405 277.535 209.536C277.451 209.657 277.409 209.811 277.409 209.998ZM276.709 207.38L276.037 206.148C276.373 205.971 276.783 205.803 277.269 205.644C277.754 205.476 278.295 205.392 278.893 205.392C279.443 205.392 279.933 205.471 280.363 205.63C280.792 205.789 281.128 206.022 281.371 206.33C281.613 206.629 281.735 206.997 281.735 207.436V212H279.985V207.814C279.985 207.637 279.957 207.487 279.901 207.366C279.845 207.235 279.756 207.128 279.635 207.044C279.523 206.96 279.387 206.899 279.229 206.862C279.07 206.825 278.893 206.806 278.697 206.806C278.398 206.806 278.113 206.839 277.843 206.904C277.572 206.969 277.339 207.049 277.143 207.142C276.947 207.235 276.802 207.315 276.709 207.38ZM283.421 201.08H285.241V212H283.421V201.08ZM287.031 201.08H288.851V212H287.031V201.08ZM227.613 225.56L223.413 235.08H221.551L223.175 231.356L220.501 225.56H222.517L224.589 230.684L223.693 230.656L225.723 225.56H227.613ZM227.787 228.78C227.787 228.108 227.941 227.52 228.249 227.016C228.567 226.512 228.991 226.12 229.523 225.84C230.065 225.56 230.676 225.42 231.357 225.42C232.039 225.42 232.645 225.56 233.177 225.84C233.719 226.12 234.143 226.512 234.451 227.016C234.769 227.52 234.927 228.108 234.927 228.78C234.927 229.443 234.769 230.031 234.451 230.544C234.143 231.048 233.719 231.44 233.177 231.72C232.645 232 232.039 232.14 231.357 232.14C230.676 232.14 230.065 232 229.523 231.72C228.991 231.44 228.567 231.048 228.249 230.544C227.941 230.031 227.787 229.443 227.787 228.78ZM229.635 228.78C229.635 229.144 229.71 229.466 229.859 229.746C230.018 230.017 230.228 230.231 230.489 230.39C230.751 230.539 231.04 230.614 231.357 230.614C231.675 230.614 231.964 230.539 232.225 230.39C232.487 230.231 232.692 230.017 232.841 229.746C233 229.466 233.079 229.144 233.079 228.78C233.079 228.416 233 228.094 232.841 227.814C232.692 227.534 232.487 227.319 232.225 227.17C231.964 227.021 231.675 226.946 231.357 226.946C231.04 226.946 230.751 227.021 230.489 227.17C230.228 227.319 230.018 227.534 229.859 227.814C229.71 228.094 229.635 228.416 229.635 228.78ZM238.164 229.48C238.164 229.9 238.248 230.227 238.416 230.46C238.584 230.684 238.854 230.796 239.228 230.796C239.489 230.796 239.713 230.745 239.9 230.642C240.096 230.53 240.245 230.376 240.348 230.18C240.46 229.984 240.516 229.751 240.516 229.48V225.56H242.322V232H240.516V231.02C240.31 231.384 240.049 231.664 239.732 231.86C239.414 232.047 239.027 232.14 238.57 232.14C237.804 232.14 237.23 231.921 236.848 231.482C236.474 231.043 236.288 230.441 236.288 229.676V225.56H238.164V229.48ZM245.886 225.56V232H244.108V225.56H245.886ZM247.776 227.45C247.655 227.338 247.529 227.254 247.398 227.198C247.277 227.133 247.123 227.1 246.936 227.1C246.712 227.1 246.521 227.161 246.362 227.282C246.203 227.403 246.082 227.576 245.998 227.8C245.923 228.015 245.886 228.276 245.886 228.584L245.382 228.08C245.382 227.567 245.48 227.114 245.676 226.722C245.872 226.321 246.129 226.003 246.446 225.77C246.763 225.527 247.09 225.406 247.426 225.406C247.659 225.406 247.879 225.448 248.084 225.532C248.299 225.616 248.471 225.742 248.602 225.91L247.776 227.45ZM258.618 221.08H260.438V232H258.618V221.08ZM253.326 228.78C253.326 228.061 253.471 227.455 253.76 226.96C254.05 226.456 254.432 226.073 254.908 225.812C255.384 225.551 255.888 225.42 256.42 225.42C256.962 225.42 257.438 225.555 257.848 225.826C258.268 226.097 258.595 226.484 258.828 226.988C259.071 227.483 259.192 228.08 259.192 228.78C259.192 229.471 259.071 230.068 258.828 230.572C258.595 231.076 258.268 231.463 257.848 231.734C257.438 232.005 256.962 232.14 256.42 232.14C255.888 232.14 255.384 232.009 254.908 231.748C254.432 231.487 254.05 231.104 253.76 230.6C253.471 230.096 253.326 229.489 253.326 228.78ZM255.202 228.78C255.202 229.163 255.282 229.494 255.44 229.774C255.599 230.054 255.814 230.269 256.084 230.418C256.355 230.567 256.644 230.642 256.952 230.642C257.223 230.642 257.484 230.572 257.736 230.432C257.998 230.283 258.208 230.068 258.366 229.788C258.534 229.508 258.618 229.172 258.618 228.78C258.618 228.388 258.534 228.052 258.366 227.772C258.208 227.492 257.998 227.282 257.736 227.142C257.484 226.993 257.223 226.918 256.952 226.918C256.644 226.918 256.355 226.993 256.084 227.142C255.814 227.291 255.599 227.506 255.44 227.786C255.282 228.066 255.202 228.397 255.202 228.78ZM265.22 232.14C264.52 232.14 263.909 232 263.386 231.72C262.863 231.44 262.457 231.053 262.168 230.558C261.888 230.054 261.748 229.461 261.748 228.78C261.748 228.089 261.888 227.497 262.168 227.002C262.457 226.498 262.863 226.111 263.386 225.84C263.909 225.56 264.525 225.42 265.234 225.42C265.943 225.42 266.545 225.551 267.04 225.812C267.544 226.064 267.927 226.437 268.188 226.932C268.449 227.417 268.58 228.005 268.58 228.696C268.58 228.78 268.575 228.869 268.566 228.962C268.566 229.055 268.561 229.13 268.552 229.186H262.784V228.066H266.97L266.48 228.71C266.517 228.654 266.55 228.579 266.578 228.486C266.615 228.383 266.634 228.299 266.634 228.234C266.634 227.917 266.573 227.646 266.452 227.422C266.34 227.198 266.177 227.021 265.962 226.89C265.747 226.759 265.495 226.694 265.206 226.694C264.851 226.694 264.553 226.773 264.31 226.932C264.077 227.081 263.895 227.31 263.764 227.618C263.643 227.917 263.577 228.29 263.568 228.738C263.568 229.167 263.629 229.531 263.75 229.83C263.881 230.129 264.072 230.357 264.324 230.516C264.576 230.675 264.879 230.754 265.234 230.754C265.635 230.754 265.976 230.679 266.256 230.53C266.545 230.371 266.783 230.138 266.97 229.83L268.552 230.32C268.216 230.927 267.768 231.384 267.208 231.692C266.657 231.991 265.995 232.14 265.22 232.14ZM268.819 225.56H270.765L272.347 229.438L273.929 225.56H275.875L272.347 232.672L268.819 225.56ZM276.659 223.068C276.659 222.769 276.766 222.527 276.981 222.34C277.195 222.144 277.452 222.046 277.751 222.046C278.049 222.046 278.301 222.144 278.507 222.34C278.721 222.527 278.829 222.769 278.829 223.068C278.829 223.357 278.721 223.6 278.507 223.796C278.301 223.992 278.049 224.09 277.751 224.09C277.452 224.09 277.195 223.992 276.981 223.796C276.766 223.6 276.659 223.357 276.659 223.068ZM276.855 225.56H278.619V232H276.855V225.56ZM281.915 228.78C281.915 229.153 281.999 229.48 282.167 229.76C282.335 230.04 282.559 230.259 282.839 230.418C283.129 230.577 283.446 230.656 283.791 230.656C284.071 230.656 284.342 230.614 284.603 230.53C284.865 230.437 285.098 230.315 285.303 230.166C285.518 230.007 285.681 229.825 285.793 229.62V231.482C285.569 231.687 285.275 231.851 284.911 231.972C284.557 232.084 284.141 232.14 283.665 232.14C282.984 232.14 282.368 232 281.817 231.72C281.276 231.44 280.847 231.048 280.529 230.544C280.221 230.031 280.067 229.443 280.067 228.78C280.067 228.108 280.221 227.52 280.529 227.016C280.847 226.512 281.276 226.12 281.817 225.84C282.368 225.56 282.984 225.42 283.665 225.42C284.141 225.42 284.557 225.481 284.911 225.602C285.275 225.714 285.569 225.868 285.793 226.064V227.926C285.681 227.721 285.513 227.543 285.289 227.394C285.075 227.235 284.837 227.114 284.575 227.03C284.314 226.946 284.053 226.904 283.791 226.904C283.446 226.904 283.129 226.988 282.839 227.156C282.559 227.315 282.335 227.534 282.167 227.814C281.999 228.094 281.915 228.416 281.915 228.78ZM290.431 232.14C289.731 232.14 289.12 232 288.597 231.72C288.074 231.44 287.668 231.053 287.379 230.558C287.099 230.054 286.959 229.461 286.959 228.78C286.959 228.089 287.099 227.497 287.379 227.002C287.668 226.498 288.074 226.111 288.597 225.84C289.12 225.56 289.736 225.42 290.445 225.42C291.154 225.42 291.756 225.551 292.251 225.812C292.755 226.064 293.138 226.437 293.399 226.932C293.66 227.417 293.791 228.005 293.791 228.696C293.791 228.78 293.786 228.869 293.777 228.962C293.777 229.055 293.772 229.13 293.763 229.186H287.995V228.066H292.181L291.691 228.71C291.728 228.654 291.761 228.579 291.789 228.486C291.826 228.383 291.845 228.299 291.845 228.234C291.845 227.917 291.784 227.646 291.663 227.422C291.551 227.198 291.388 227.021 291.173 226.89C290.958 226.759 290.706 226.694 290.417 226.694C290.062 226.694 289.764 226.773 289.521 226.932C289.288 227.081 289.106 227.31 288.975 227.618C288.854 227.917 288.788 228.29 288.779 228.738C288.779 229.167 288.84 229.531 288.961 229.83C289.092 230.129 289.283 230.357 289.535 230.516C289.787 230.675 290.09 230.754 290.445 230.754C290.846 230.754 291.187 230.679 291.467 230.53C291.756 230.371 291.994 230.138 292.181 229.83L293.763 230.32C293.427 230.927 292.979 231.384 292.419 231.692C291.868 231.991 291.206 232.14 290.431 232.14ZM295.481 229.774C295.751 230.026 296.003 230.231 296.237 230.39C296.47 230.539 296.689 230.651 296.895 230.726C297.109 230.801 297.31 230.838 297.497 230.838C297.739 230.838 297.926 230.787 298.057 230.684C298.187 230.572 298.253 230.423 298.253 230.236C298.253 230.068 298.197 229.928 298.085 229.816C297.982 229.695 297.828 229.587 297.623 229.494C297.417 229.401 297.156 229.303 296.839 229.2C296.54 229.088 296.251 228.957 295.971 228.808C295.691 228.649 295.457 228.444 295.271 228.192C295.093 227.931 295.005 227.599 295.005 227.198C295.005 226.815 295.107 226.493 295.313 226.232C295.518 225.961 295.793 225.761 296.139 225.63C296.493 225.49 296.885 225.42 297.315 225.42C297.679 225.42 298.019 225.467 298.337 225.56C298.654 225.653 298.948 225.779 299.219 225.938C299.489 226.087 299.727 226.265 299.933 226.47L299.135 227.59C298.901 227.338 298.621 227.133 298.295 226.974C297.977 226.815 297.665 226.736 297.357 226.736C297.151 226.736 296.988 226.778 296.867 226.862C296.755 226.937 296.699 227.053 296.699 227.212C296.699 227.352 296.755 227.478 296.867 227.59C296.988 227.693 297.156 227.786 297.371 227.87C297.595 227.954 297.847 228.057 298.127 228.178C298.472 228.309 298.789 228.458 299.079 228.626C299.377 228.785 299.615 228.985 299.793 229.228C299.97 229.471 300.059 229.788 300.059 230.18C300.059 230.824 299.849 231.328 299.429 231.692C299.009 232.047 298.43 232.224 297.693 232.224C297.235 232.224 296.815 232.163 296.433 232.042C296.059 231.921 295.719 231.762 295.411 231.566C295.112 231.361 294.841 231.141 294.599 230.908L295.481 229.774Z" fill="#033927"/>
<path d="M8.18802 212.456C8.38002 212.792 8.58002 213.088 8.78802 213.344C9.00402 213.6 9.24402 213.8 9.50802 213.944C9.77202 214.088 10.072 214.16 10.408 214.16C10.856 214.16 11.216 214.036 11.488 213.788C11.76 213.54 11.896 213.224 11.896 212.84C11.896 212.464 11.808 212.164 11.632 211.94C11.456 211.716 11.224 211.536 10.936 211.4C10.656 211.256 10.356 211.128 10.036 211.016C9.82802 210.944 9.59602 210.852 9.34002 210.74C9.08402 210.62 8.84002 210.472 8.60802 210.296C8.37602 210.112 8.18402 209.888 8.03202 209.624C7.88802 209.36 7.81602 209.036 7.81602 208.652C7.81602 208.236 7.92002 207.864 8.12802 207.536C8.33602 207.208 8.62402 206.952 8.99202 206.768C9.36002 206.576 9.78002 206.48 10.252 206.48C10.708 206.48 11.104 206.568 11.44 206.744C11.784 206.912 12.076 207.132 12.316 207.404C12.556 207.668 12.744 207.948 12.88 208.244L12.004 208.748C11.9 208.54 11.768 208.336 11.608 208.136C11.448 207.936 11.252 207.772 11.02 207.644C10.796 207.516 10.52 207.452 10.192 207.452C9.73602 207.452 9.40402 207.564 9.19602 207.788C8.98802 208.004 8.88402 208.248 8.88402 208.52C8.88402 208.752 8.94402 208.968 9.06402 209.168C9.18402 209.36 9.38402 209.544 9.66402 209.72C9.95202 209.888 10.34 210.056 10.828 210.224C11.052 210.304 11.288 210.408 11.536 210.536C11.784 210.664 12.012 210.828 12.22 211.028C12.436 211.22 12.612 211.456 12.748 211.736C12.884 212.008 12.952 212.336 12.952 212.72C12.952 213.088 12.88 213.42 12.736 213.716C12.6 214.012 12.408 214.264 12.16 214.472C11.92 214.68 11.644 214.84 11.332 214.952C11.028 215.064 10.708 215.12 10.372 215.12C9.91602 215.12 9.49202 215.024 9.10002 214.832C8.71602 214.632 8.37602 214.372 8.08002 214.052C7.79202 213.724 7.55602 213.376 7.37202 213.008L8.18802 212.456ZM14.8222 213.296C14.8222 213.504 14.8702 213.684 14.9662 213.836C15.0702 213.988 15.2102 214.104 15.3862 214.184C15.5702 214.256 15.7782 214.292 16.0102 214.292C16.3062 214.292 16.5702 214.232 16.8022 214.112C17.0422 213.992 17.2302 213.824 17.3662 213.608C17.5102 213.384 17.5822 213.128 17.5822 212.84L17.7742 213.56C17.7742 213.912 17.6662 214.204 17.4502 214.436C17.2422 214.668 16.9822 214.84 16.6702 214.952C16.3662 215.064 16.0622 215.12 15.7582 215.12C15.4222 215.12 15.1062 215.052 14.8102 214.916C14.5222 214.772 14.2902 214.568 14.1142 214.304C13.9382 214.04 13.8502 213.72 13.8502 213.344C13.8502 212.808 14.0382 212.38 14.4142 212.06C14.7982 211.732 15.3302 211.568 16.0102 211.568C16.4102 211.568 16.7422 211.616 17.0062 211.712C17.2782 211.8 17.4942 211.904 17.6542 212.024C17.8142 212.136 17.9222 212.228 17.9782 212.3V212.864C17.6982 212.672 17.4102 212.536 17.1142 212.456C16.8182 212.368 16.5022 212.324 16.1662 212.324C15.8542 212.324 15.5982 212.364 15.3982 212.444C15.2062 212.524 15.0622 212.636 14.9662 212.78C14.8702 212.924 14.8222 213.096 14.8222 213.296ZM14.6782 210.752L14.2102 210.044C14.4182 209.892 14.7022 209.74 15.0622 209.588C15.4302 209.436 15.8702 209.36 16.3822 209.36C16.8142 209.36 17.1902 209.428 17.5102 209.564C17.8382 209.692 18.0902 209.88 18.2662 210.128C18.4502 210.376 18.5422 210.68 18.5422 211.04V215H17.5822V211.172C17.5822 210.98 17.5502 210.824 17.4862 210.704C17.4222 210.576 17.3302 210.476 17.2102 210.404C17.0982 210.332 16.9662 210.28 16.8142 210.248C16.6622 210.216 16.5022 210.2 16.3342 210.2C16.0622 210.2 15.8142 210.232 15.5902 210.296C15.3742 210.36 15.1902 210.436 15.0382 210.524C14.8862 210.612 14.7662 210.688 14.6782 210.752ZM19.209 209.48H20.289L21.849 213.38L23.409 209.48H24.489L21.849 215.42L19.209 209.48ZM27.3544 215.12C26.8424 215.12 26.3864 215 25.9864 214.76C25.5944 214.512 25.2864 214.172 25.0624 213.74C24.8464 213.308 24.7384 212.808 24.7384 212.24C24.7384 211.664 24.8504 211.16 25.0744 210.728C25.3064 210.296 25.6264 209.96 26.0344 209.72C26.4504 209.48 26.9304 209.36 27.4744 209.36C28.0184 209.36 28.4824 209.476 28.8664 209.708C29.2584 209.932 29.5584 210.256 29.7664 210.68C29.9744 211.104 30.0784 211.608 30.0784 212.192C30.0784 212.248 30.0744 212.308 30.0664 212.372C30.0664 212.428 30.0664 212.464 30.0664 212.48H25.3504V211.664H29.3104L28.9264 212.216C28.9504 212.176 28.9744 212.116 28.9984 212.036C29.0224 211.948 29.0344 211.876 29.0344 211.82C29.0344 211.492 28.9664 211.208 28.8304 210.968C28.7024 210.728 28.5224 210.54 28.2904 210.404C28.0584 210.268 27.7864 210.2 27.4744 210.2C27.1064 210.2 26.7904 210.28 26.5264 210.44C26.2704 210.592 26.0704 210.816 25.9264 211.112C25.7904 211.4 25.7184 211.756 25.7104 212.18C25.7104 212.612 25.7784 212.98 25.9144 213.284C26.0504 213.588 26.2504 213.82 26.5144 213.98C26.7784 214.14 27.0984 214.22 27.4744 214.22C27.8504 214.22 28.1824 214.14 28.4704 213.98C28.7584 213.812 29.0024 213.56 29.2024 213.224L29.9824 213.716C29.6944 214.18 29.3304 214.532 28.8904 214.772C28.4584 215.004 27.9464 215.12 27.3544 215.12ZM34.9918 207.2C34.9918 207.016 35.0558 206.86 35.1838 206.732C35.3198 206.604 35.4758 206.54 35.6518 206.54C35.8358 206.54 35.9918 206.604 36.1198 206.732C36.2478 206.86 36.3118 207.016 36.3118 207.2C36.3118 207.376 36.2478 207.532 36.1198 207.668C35.9918 207.796 35.8358 207.86 35.6518 207.86C35.4758 207.86 35.3198 207.796 35.1838 207.668C35.0558 207.532 34.9918 207.376 34.9918 207.2ZM35.1718 209.48H36.1318V215H35.1718V209.48ZM37.269 209.48H40.029V210.38H37.269V209.48ZM38.169 207.56H39.129V215H38.169V207.56ZM43.7495 209.48H46.5095V210.38H43.7495V209.48ZM44.6495 207.56H45.6095V215H44.6495V207.56ZM46.9923 212.24C46.9923 211.68 47.1163 211.184 47.3643 210.752C47.6203 210.32 47.9643 209.98 48.3963 209.732C48.8283 209.484 49.3123 209.36 49.8483 209.36C50.3923 209.36 50.8763 209.484 51.3003 209.732C51.7323 209.98 52.0723 210.32 52.3203 210.752C52.5763 211.184 52.7043 211.68 52.7043 212.24C52.7043 212.792 52.5763 213.288 52.3203 213.728C52.0723 214.16 51.7323 214.5 51.3003 214.748C50.8763 214.996 50.3923 215.12 49.8483 215.12C49.3123 215.12 48.8283 214.996 48.3963 214.748C47.9643 214.5 47.6203 214.16 47.3643 213.728C47.1163 213.288 46.9923 212.792 46.9923 212.24ZM47.9643 212.24C47.9643 212.624 48.0443 212.964 48.2043 213.26C48.3723 213.556 48.5963 213.792 48.8763 213.968C49.1643 214.136 49.4883 214.22 49.8483 214.22C50.2083 214.22 50.5283 214.136 50.8083 213.968C51.0963 213.792 51.3203 213.556 51.4803 213.26C51.6483 212.964 51.7323 212.624 51.7323 212.24C51.7323 211.856 51.6483 211.516 51.4803 211.22C51.3203 210.916 51.0963 210.68 50.8083 210.512C50.5283 210.344 50.2083 210.26 49.8483 210.26C49.4883 210.26 49.1643 210.344 48.8763 210.512C48.5963 210.68 48.3723 210.916 48.2043 211.22C48.0443 211.516 47.9643 211.856 47.9643 212.24ZM56.7807 209.48H59.5407V210.38H56.7807V209.48ZM57.6807 207.56H58.6407V215H57.6807V207.56ZM61.4635 205.64V215H60.5035V205.64H61.4635ZM64.0435 211.64C64.0435 211.184 63.9435 210.84 63.7435 210.608C63.5515 210.376 63.2595 210.26 62.8675 210.26C62.5875 210.26 62.3395 210.32 62.1235 210.44C61.9155 210.56 61.7515 210.724 61.6315 210.932C61.5195 211.14 61.4635 211.376 61.4635 211.64H61.1515C61.1515 211.2 61.2355 210.812 61.4035 210.476C61.5715 210.132 61.7995 209.86 62.0875 209.66C62.3835 209.46 62.7235 209.36 63.1075 209.36C63.4915 209.36 63.8235 209.44 64.1035 209.6C64.3915 209.76 64.6115 210 64.7635 210.32C64.9235 210.64 65.0035 211.04 65.0035 211.52V215H64.0435V211.64ZM68.9442 215.12C68.4322 215.12 67.9762 215 67.5762 214.76C67.1842 214.512 66.8762 214.172 66.6522 213.74C66.4362 213.308 66.3282 212.808 66.3282 212.24C66.3282 211.664 66.4402 211.16 66.6642 210.728C66.8962 210.296 67.2162 209.96 67.6242 209.72C68.0402 209.48 68.5202 209.36 69.0642 209.36C69.6082 209.36 70.0722 209.476 70.4562 209.708C70.8482 209.932 71.1482 210.256 71.3562 210.68C71.5642 211.104 71.6682 211.608 71.6682 212.192C71.6682 212.248 71.6642 212.308 71.6562 212.372C71.6562 212.428 71.6562 212.464 71.6562 212.48H66.9402V211.664H70.9002L70.5162 212.216C70.5402 212.176 70.5642 212.116 70.5882 212.036C70.6122 211.948 70.6242 211.876 70.6242 211.82C70.6242 211.492 70.5562 211.208 70.4202 210.968C70.2922 210.728 70.1122 210.54 69.8802 210.404C69.6482 210.268 69.3762 210.2 69.0642 210.2C68.6962 210.2 68.3802 210.28 68.1162 210.44C67.8602 210.592 67.6602 210.816 67.5162 211.112C67.3802 211.4 67.3082 211.756 67.3002 212.18C67.3002 212.612 67.3682 212.98 67.5042 213.284C67.6402 213.588 67.8402 213.82 68.1042 213.98C68.3682 214.14 68.6882 214.22 69.0642 214.22C69.4402 214.22 69.7722 214.14 70.0602 213.98C70.3482 213.812 70.5922 213.56 70.7922 213.224L71.5722 213.716C71.2842 214.18 70.9202 214.532 70.4802 214.772C70.0482 215.004 69.5362 215.12 68.9442 215.12ZM22.081 222.64H23.041V232H22.081V222.64ZM17.461 229.24C17.461 228.64 17.585 228.128 17.833 227.704C18.081 227.272 18.413 226.94 18.829 226.708C19.245 226.476 19.701 226.36 20.197 226.36C20.661 226.36 21.065 226.476 21.409 226.708C21.753 226.94 22.021 227.272 22.213 227.704C22.413 228.128 22.513 228.64 22.513 229.24C22.513 229.832 22.413 230.344 22.213 230.776C22.021 231.208 21.753 231.54 21.409 231.772C21.065 232.004 20.661 232.12 20.197 232.12C19.701 232.12 19.245 232.004 18.829 231.772C18.413 231.54 18.081 231.208 17.833 230.776C17.585 230.344 17.461 229.832 17.461 229.24ZM18.433 229.24C18.433 229.664 18.517 230.024 18.685 230.32C18.861 230.616 19.093 230.84 19.381 230.992C19.669 231.144 19.981 231.22 20.317 231.22C20.597 231.22 20.873 231.144 21.145 230.992C21.417 230.84 21.641 230.616 21.817 230.32C21.993 230.024 22.081 229.664 22.081 229.24C22.081 228.816 21.993 228.456 21.817 228.16C21.641 227.864 21.417 227.64 21.145 227.488C20.873 227.336 20.597 227.26 20.317 227.26C19.981 227.26 19.669 227.336 19.381 227.488C19.093 227.64 18.861 227.864 18.685 228.16C18.517 228.456 18.433 228.816 18.433 229.24ZM25.2168 230.296C25.2168 230.504 25.2648 230.684 25.3608 230.836C25.4648 230.988 25.6048 231.104 25.7808 231.184C25.9648 231.256 26.1728 231.292 26.4048 231.292C26.7008 231.292 26.9648 231.232 27.1968 231.112C27.4368 230.992 27.6248 230.824 27.7608 230.608C27.9048 230.384 27.9768 230.128 27.9768 229.84L28.1688 230.56C28.1688 230.912 28.0608 231.204 27.8448 231.436C27.6368 231.668 27.3768 231.84 27.0648 231.952C26.7608 232.064 26.4568 232.12 26.1528 232.12C25.8168 232.12 25.5008 232.052 25.2048 231.916C24.9168 231.772 24.6848 231.568 24.5088 231.304C24.3328 231.04 24.2448 230.72 24.2448 230.344C24.2448 229.808 24.4328 229.38 24.8088 229.06C25.1928 228.732 25.7248 228.568 26.4048 228.568C26.8048 228.568 27.1368 228.616 27.4008 228.712C27.6728 228.8 27.8888 228.904 28.0488 229.024C28.2088 229.136 28.3168 229.228 28.3728 229.3V229.864C28.0928 229.672 27.8048 229.536 27.5088 229.456C27.2128 229.368 26.8968 229.324 26.5608 229.324C26.2488 229.324 25.9928 229.364 25.7928 229.444C25.6008 229.524 25.4568 229.636 25.3608 229.78C25.2648 229.924 25.2168 230.096 25.2168 230.296ZM25.0728 227.752L24.6048 227.044C24.8128 226.892 25.0968 226.74 25.4568 226.588C25.8248 226.436 26.2648 226.36 26.7768 226.36C27.2088 226.36 27.5848 226.428 27.9048 226.564C28.2328 226.692 28.4848 226.88 28.6608 227.128C28.8448 227.376 28.9368 227.68 28.9368 228.04V232H27.9768V228.172C27.9768 227.98 27.9448 227.824 27.8808 227.704C27.8168 227.576 27.7248 227.476 27.6048 227.404C27.4928 227.332 27.3608 227.28 27.2088 227.248C27.0568 227.216 26.8968 227.2 26.7288 227.2C26.4568 227.2 26.2088 227.232 25.9848 227.296C25.7688 227.36 25.5848 227.436 25.4328 227.524C25.2808 227.612 25.1608 227.688 25.0728 227.752ZM29.7221 226.48H32.4821V227.38H29.7221V226.48ZM30.6221 224.56H31.5821V232H30.6221V224.56ZM33.8769 230.296C33.8769 230.504 33.9249 230.684 34.0209 230.836C34.1249 230.988 34.2649 231.104 34.4409 231.184C34.6249 231.256 34.8329 231.292 35.0649 231.292C35.3609 231.292 35.6249 231.232 35.8569 231.112C36.0969 230.992 36.2849 230.824 36.4209 230.608C36.5649 230.384 36.6369 230.128 36.6369 229.84L36.8289 230.56C36.8289 230.912 36.7209 231.204 36.5049 231.436C36.2969 231.668 36.0369 231.84 35.7249 231.952C35.4209 232.064 35.1169 232.12 34.8129 232.12C34.4769 232.12 34.1609 232.052 33.8649 231.916C33.5769 231.772 33.3449 231.568 33.1689 231.304C32.9929 231.04 32.9049 230.72 32.9049 230.344C32.9049 229.808 33.0929 229.38 33.4689 229.06C33.8529 228.732 34.3849 228.568 35.0649 228.568C35.4649 228.568 35.7969 228.616 36.0609 228.712C36.3329 228.8 36.5489 228.904 36.7089 229.024C36.8689 229.136 36.9769 229.228 37.0329 229.3V229.864C36.7529 229.672 36.4649 229.536 36.1689 229.456C35.8729 229.368 35.5569 229.324 35.2209 229.324C34.9089 229.324 34.6529 229.364 34.4529 229.444C34.2609 229.524 34.1169 229.636 34.0209 229.78C33.9249 229.924 33.8769 230.096 33.8769 230.296ZM33.7329 227.752L33.2649 227.044C33.4729 226.892 33.7569 226.74 34.1169 226.588C34.4849 226.436 34.9249 226.36 35.4369 226.36C35.8689 226.36 36.2449 226.428 36.5649 226.564C36.8929 226.692 37.1449 226.88 37.3209 227.128C37.5049 227.376 37.5969 227.68 37.5969 228.04V232H36.6369V228.172C36.6369 227.98 36.6049 227.824 36.5409 227.704C36.4769 227.576 36.3849 227.476 36.2649 227.404C36.1529 227.332 36.0209 227.28 35.8689 227.248C35.7169 227.216 35.5569 227.2 35.3889 227.2C35.1169 227.2 34.8689 227.232 34.6449 227.296C34.4289 227.36 34.2449 227.436 34.0929 227.524C33.9409 227.612 33.8209 227.688 33.7329 227.752ZM40.1223 222.64V232H39.1623V222.64H40.1223ZM44.7423 229.24C44.7423 229.832 44.6183 230.344 44.3703 230.776C44.1223 231.208 43.7903 231.54 43.3743 231.772C42.9663 232.004 42.5103 232.12 42.0063 232.12C41.5503 232.12 41.1463 232.004 40.7943 231.772C40.4503 231.54 40.1783 231.208 39.9783 230.776C39.7863 230.344 39.6903 229.832 39.6903 229.24C39.6903 228.64 39.7863 228.128 39.9783 227.704C40.1783 227.272 40.4503 226.94 40.7943 226.708C41.1463 226.476 41.5503 226.36 42.0063 226.36C42.5103 226.36 42.9663 226.476 43.3743 226.708C43.7903 226.94 44.1223 227.272 44.3703 227.704C44.6183 228.128 44.7423 228.64 44.7423 229.24ZM43.7703 229.24C43.7703 228.816 43.6823 228.456 43.5063 228.16C43.3383 227.864 43.1103 227.64 42.8223 227.488C42.5423 227.336 42.2303 227.26 41.8863 227.26C41.6063 227.26 41.3303 227.336 41.0583 227.488C40.7863 227.64 40.5623 227.864 40.3863 228.16C40.2103 228.456 40.1223 228.816 40.1223 229.24C40.1223 229.664 40.2103 230.024 40.3863 230.32C40.5623 230.616 40.7863 230.84 41.0583 230.992C41.3303 231.144 41.6063 231.22 41.8863 231.22C42.2303 231.22 42.5423 231.144 42.8223 230.992C43.1103 230.84 43.3383 230.616 43.5063 230.32C43.6823 230.024 43.7703 229.664 43.7703 229.24ZM46.498 230.296C46.498 230.504 46.546 230.684 46.642 230.836C46.746 230.988 46.886 231.104 47.062 231.184C47.246 231.256 47.454 231.292 47.686 231.292C47.982 231.292 48.246 231.232 48.478 231.112C48.718 230.992 48.906 230.824 49.042 230.608C49.186 230.384 49.258 230.128 49.258 229.84L49.45 230.56C49.45 230.912 49.342 231.204 49.126 231.436C48.918 231.668 48.658 231.84 48.346 231.952C48.042 232.064 47.738 232.12 47.434 232.12C47.098 232.12 46.782 232.052 46.486 231.916C46.198 231.772 45.966 231.568 45.79 231.304C45.614 231.04 45.526 230.72 45.526 230.344C45.526 229.808 45.714 229.38 46.09 229.06C46.474 228.732 47.006 228.568 47.686 228.568C48.086 228.568 48.418 228.616 48.682 228.712C48.954 228.8 49.17 228.904 49.33 229.024C49.49 229.136 49.598 229.228 49.654 229.3V229.864C49.374 229.672 49.086 229.536 48.79 229.456C48.494 229.368 48.178 229.324 47.842 229.324C47.53 229.324 47.274 229.364 47.074 229.444C46.882 229.524 46.738 229.636 46.642 229.78C46.546 229.924 46.498 230.096 46.498 230.296ZM46.354 227.752L45.886 227.044C46.094 226.892 46.378 226.74 46.738 226.588C47.106 226.436 47.546 226.36 48.058 226.36C48.49 226.36 48.866 226.428 49.186 226.564C49.514 226.692 49.766 226.88 49.942 227.128C50.126 227.376 50.218 227.68 50.218 228.04V232H49.258V228.172C49.258 227.98 49.226 227.824 49.162 227.704C49.098 227.576 49.006 227.476 48.886 227.404C48.774 227.332 48.642 227.28 48.49 227.248C48.338 227.216 48.178 227.2 48.01 227.2C47.738 227.2 47.49 227.232 47.266 227.296C47.05 227.36 46.866 227.436 46.714 227.524C46.562 227.612 46.442 227.688 46.354 227.752ZM52.0714 230.308C52.1834 230.476 52.3114 230.632 52.4554 230.776C52.5994 230.92 52.7634 231.036 52.9474 231.124C53.1394 231.204 53.3474 231.244 53.5714 231.244C53.8434 231.244 54.0554 231.184 54.2074 231.064C54.3674 230.936 54.4474 230.764 54.4474 230.548C54.4474 230.356 54.3834 230.196 54.2554 230.068C54.1354 229.932 53.9794 229.82 53.7874 229.732C53.5954 229.636 53.3914 229.548 53.1754 229.468C52.9354 229.372 52.6914 229.26 52.4434 229.132C52.2034 228.996 51.9994 228.824 51.8314 228.616C51.6714 228.4 51.5914 228.132 51.5914 227.812C51.5914 227.484 51.6754 227.212 51.8434 226.996C52.0194 226.78 52.2434 226.62 52.5154 226.516C52.7954 226.412 53.0834 226.36 53.3794 226.36C53.6754 226.36 53.9514 226.408 54.2074 226.504C54.4714 226.6 54.7034 226.728 54.9034 226.888C55.1034 227.048 55.2594 227.232 55.3714 227.44L54.6034 227.932C54.4514 227.724 54.2594 227.552 54.0274 227.416C53.8034 227.28 53.5474 227.212 53.2594 227.212C53.0594 227.212 52.8874 227.256 52.7434 227.344C52.5994 227.432 52.5274 227.568 52.5274 227.752C52.5274 227.896 52.5834 228.024 52.6954 228.136C52.8074 228.248 52.9514 228.348 53.1274 228.436C53.3034 228.524 53.4874 228.608 53.6794 228.688C53.9994 228.816 54.2914 228.956 54.5554 229.108C54.8194 229.252 55.0274 229.428 55.1794 229.636C55.3394 229.844 55.4194 230.112 55.4194 230.44C55.4194 230.92 55.2434 231.32 54.8914 231.64C54.5474 231.96 54.0914 232.12 53.5234 232.12C53.1554 232.12 52.8234 232.056 52.5274 231.928C52.2314 231.792 51.9794 231.62 51.7714 231.412C51.5714 231.204 51.4194 230.992 51.3154 230.776L52.0714 230.308ZM58.8192 232.12C58.3072 232.12 57.8512 232 57.4512 231.76C57.0592 231.512 56.7512 231.172 56.5272 230.74C56.3112 230.308 56.2032 229.808 56.2032 229.24C56.2032 228.664 56.3152 228.16 56.5392 227.728C56.7712 227.296 57.0912 226.96 57.4992 226.72C57.9152 226.48 58.3952 226.36 58.9392 226.36C59.4832 226.36 59.9472 226.476 60.3312 226.708C60.7232 226.932 61.0232 227.256 61.2312 227.68C61.4392 228.104 61.5432 228.608 61.5432 229.192C61.5432 229.248 61.5392 229.308 61.5312 229.372C61.5312 229.428 61.5312 229.464 61.5312 229.48H56.8152V228.664H60.7752L60.3912 229.216C60.4152 229.176 60.4392 229.116 60.4632 229.036C60.4872 228.948 60.4992 228.876 60.4992 228.82C60.4992 228.492 60.4312 228.208 60.2952 227.968C60.1672 227.728 59.9872 227.54 59.7552 227.404C59.5232 227.268 59.2512 227.2 58.9392 227.2C58.5712 227.2 58.2552 227.28 57.9912 227.44C57.7352 227.592 57.5352 227.816 57.3912 228.112C57.2552 228.4 57.1832 228.756 57.1752 229.18C57.1752 229.612 57.2432 229.98 57.3792 230.284C57.5152 230.588 57.7152 230.82 57.9792 230.98C58.2432 231.14 58.5632 231.22 58.9392 231.22C59.3152 231.22 59.6472 231.14 59.9352 230.98C60.2232 230.812 60.4672 230.56 60.6672 230.224L61.4472 230.716C61.1592 231.18 60.7952 231.532 60.3552 231.772C59.9232 232.004 59.4112 232.12 58.8192 232.12Z" fill="black"/>
<path d="M246.397 117.48L246.757 116.52H250.477L250.837 117.48H246.397ZM248.593 113.496L247.177 116.832L247.081 117.048L245.833 120H244.693L248.593 111.18L252.493 120H251.353L250.129 117.12L250.033 116.88L248.593 113.496ZM257.595 110.64H258.555V120H257.595V110.64ZM252.975 117.24C252.975 116.64 253.099 116.128 253.347 115.704C253.595 115.272 253.927 114.94 254.343 114.708C254.759 114.476 255.215 114.36 255.711 114.36C256.175 114.36 256.579 114.476 256.923 114.708C257.267 114.94 257.535 115.272 257.727 115.704C257.927 116.128 258.027 116.64 258.027 117.24C258.027 117.832 257.927 118.344 257.727 118.776C257.535 119.208 257.267 119.54 256.923 119.772C256.579 120.004 256.175 120.12 255.711 120.12C255.215 120.12 254.759 120.004 254.343 119.772C253.927 119.54 253.595 119.208 253.347 118.776C253.099 118.344 252.975 117.832 252.975 117.24ZM253.947 117.24C253.947 117.664 254.031 118.024 254.199 118.32C254.375 118.616 254.607 118.84 254.895 118.992C255.183 119.144 255.495 119.22 255.831 119.22C256.111 119.22 256.387 119.144 256.659 118.992C256.931 118.84 257.155 118.616 257.331 118.32C257.507 118.024 257.595 117.664 257.595 117.24C257.595 116.816 257.507 116.456 257.331 116.16C257.155 115.864 256.931 115.64 256.659 115.488C256.387 115.336 256.111 115.26 255.831 115.26C255.495 115.26 255.183 115.336 254.895 115.488C254.607 115.64 254.375 115.864 254.199 116.16C254.031 116.456 253.947 116.816 253.947 117.24ZM264.438 110.64H265.398V120H264.438V110.64ZM259.818 117.24C259.818 116.64 259.942 116.128 260.19 115.704C260.438 115.272 260.77 114.94 261.186 114.708C261.602 114.476 262.058 114.36 262.554 114.36C263.018 114.36 263.422 114.476 263.766 114.708C264.11 114.94 264.378 115.272 264.57 115.704C264.77 116.128 264.87 116.64 264.87 117.24C264.87 117.832 264.77 118.344 264.57 118.776C264.378 119.208 264.11 119.54 263.766 119.772C263.422 120.004 263.018 120.12 262.554 120.12C262.058 120.12 261.602 120.004 261.186 119.772C260.77 119.54 260.438 119.208 260.19 118.776C259.942 118.344 259.818 117.832 259.818 117.24ZM260.79 117.24C260.79 117.664 260.874 118.024 261.042 118.32C261.218 118.616 261.45 118.84 261.738 118.992C262.026 119.144 262.338 119.22 262.674 119.22C262.954 119.22 263.23 119.144 263.502 118.992C263.774 118.84 263.998 118.616 264.174 118.32C264.35 118.024 264.438 117.664 264.438 117.24C264.438 116.816 264.35 116.456 264.174 116.16C263.998 115.864 263.774 115.64 263.502 115.488C263.23 115.336 262.954 115.26 262.674 115.26C262.338 115.26 262.026 115.336 261.738 115.488C261.45 115.64 261.218 115.864 261.042 116.16C260.874 116.456 260.79 116.816 260.79 117.24ZM270.968 118.308C271.08 118.476 271.208 118.632 271.352 118.776C271.496 118.92 271.66 119.036 271.844 119.124C272.036 119.204 272.244 119.244 272.468 119.244C272.74 119.244 272.952 119.184 273.104 119.064C273.264 118.936 273.344 118.764 273.344 118.548C273.344 118.356 273.28 118.196 273.152 118.068C273.032 117.932 272.876 117.82 272.684 117.732C272.492 117.636 272.288 117.548 272.072 117.468C271.832 117.372 271.588 117.26 271.34 117.132C271.1 116.996 270.896 116.824 270.728 116.616C270.568 116.4 270.488 116.132 270.488 115.812C270.488 115.484 270.572 115.212 270.74 114.996C270.916 114.78 271.14 114.62 271.412 114.516C271.692 114.412 271.98 114.36 272.276 114.36C272.572 114.36 272.848 114.408 273.104 114.504C273.368 114.6 273.6 114.728 273.8 114.888C274 115.048 274.156 115.232 274.268 115.44L273.5 115.932C273.348 115.724 273.156 115.552 272.924 115.416C272.7 115.28 272.444 115.212 272.156 115.212C271.956 115.212 271.784 115.256 271.64 115.344C271.496 115.432 271.424 115.568 271.424 115.752C271.424 115.896 271.48 116.024 271.592 116.136C271.704 116.248 271.848 116.348 272.024 116.436C272.2 116.524 272.384 116.608 272.576 116.688C272.896 116.816 273.188 116.956 273.452 117.108C273.716 117.252 273.924 117.428 274.076 117.636C274.236 117.844 274.316 118.112 274.316 118.44C274.316 118.92 274.14 119.32 273.788 119.64C273.444 119.96 272.988 120.12 272.42 120.12C272.052 120.12 271.72 120.056 271.424 119.928C271.128 119.792 270.876 119.62 270.668 119.412C270.468 119.204 270.316 118.992 270.212 118.776L270.968 118.308ZM274.74 114.48H277.5V115.38H274.74V114.48ZM275.64 112.56H276.6V120H275.64V112.56ZM278.895 118.296C278.895 118.504 278.943 118.684 279.039 118.836C279.143 118.988 279.283 119.104 279.459 119.184C279.643 119.256 279.851 119.292 280.083 119.292C280.379 119.292 280.643 119.232 280.875 119.112C281.115 118.992 281.303 118.824 281.439 118.608C281.583 118.384 281.655 118.128 281.655 117.84L281.847 118.56C281.847 118.912 281.739 119.204 281.523 119.436C281.315 119.668 281.055 119.84 280.743 119.952C280.439 120.064 280.135 120.12 279.831 120.12C279.495 120.12 279.179 120.052 278.883 119.916C278.595 119.772 278.363 119.568 278.187 119.304C278.011 119.04 277.923 118.72 277.923 118.344C277.923 117.808 278.111 117.38 278.487 117.06C278.871 116.732 279.403 116.568 280.083 116.568C280.483 116.568 280.815 116.616 281.079 116.712C281.351 116.8 281.567 116.904 281.727 117.024C281.887 117.136 281.995 117.228 282.051 117.3V117.864C281.771 117.672 281.483 117.536 281.187 117.456C280.891 117.368 280.575 117.324 280.239 117.324C279.927 117.324 279.671 117.364 279.471 117.444C279.279 117.524 279.135 117.636 279.039 117.78C278.943 117.924 278.895 118.096 278.895 118.296ZM278.751 115.752L278.283 115.044C278.491 114.892 278.775 114.74 279.135 114.588C279.503 114.436 279.943 114.36 280.455 114.36C280.887 114.36 281.263 114.428 281.583 114.564C281.911 114.692 282.163 114.88 282.339 115.128C282.523 115.376 282.615 115.68 282.615 116.04V120H281.655V116.172C281.655 115.98 281.623 115.824 281.559 115.704C281.495 115.576 281.403 115.476 281.283 115.404C281.171 115.332 281.039 115.28 280.887 115.248C280.735 115.216 280.575 115.2 280.407 115.2C280.135 115.2 279.887 115.232 279.663 115.296C279.447 115.36 279.263 115.436 279.111 115.524C278.959 115.612 278.839 115.688 278.751 115.752ZM283.4 114.48H286.16V115.38H283.4V114.48ZM284.3 112.56H285.26V120H284.3V112.56ZM288.083 117.84C288.083 118.28 288.183 118.62 288.383 118.86C288.583 119.1 288.875 119.22 289.259 119.22C289.539 119.22 289.783 119.164 289.991 119.052C290.207 118.932 290.371 118.768 290.483 118.56C290.603 118.352 290.663 118.112 290.663 117.84V114.48H291.623V120H290.663V119.136C290.479 119.464 290.251 119.712 289.979 119.88C289.707 120.04 289.387 120.12 289.019 120.12C288.443 120.12 287.983 119.924 287.639 119.532C287.295 119.14 287.123 118.616 287.123 117.96V114.48H288.083V117.84ZM293.655 118.308C293.767 118.476 293.895 118.632 294.039 118.776C294.183 118.92 294.347 119.036 294.531 119.124C294.723 119.204 294.931 119.244 295.155 119.244C295.427 119.244 295.639 119.184 295.791 119.064C295.951 118.936 296.031 118.764 296.031 118.548C296.031 118.356 295.967 118.196 295.839 118.068C295.719 117.932 295.563 117.82 295.371 117.732C295.179 117.636 294.975 117.548 294.759 117.468C294.519 117.372 294.275 117.26 294.027 117.132C293.787 116.996 293.583 116.824 293.415 116.616C293.255 116.4 293.175 116.132 293.175 115.812C293.175 115.484 293.259 115.212 293.427 114.996C293.603 114.78 293.827 114.62 294.099 114.516C294.379 114.412 294.667 114.36 294.963 114.36C295.259 114.36 295.535 114.408 295.791 114.504C296.055 114.6 296.287 114.728 296.487 114.888C296.687 115.048 296.843 115.232 296.955 115.44L296.187 115.932C296.035 115.724 295.843 115.552 295.611 115.416C295.387 115.28 295.131 115.212 294.843 115.212C294.643 115.212 294.471 115.256 294.327 115.344C294.183 115.432 294.111 115.568 294.111 115.752C294.111 115.896 294.167 116.024 294.279 116.136C294.391 116.248 294.535 116.348 294.711 116.436C294.887 116.524 295.071 116.608 295.263 116.688C295.583 116.816 295.875 116.956 296.139 117.108C296.403 117.252 296.611 117.428 296.763 117.636C296.923 117.844 297.003 118.112 297.003 118.44C297.003 118.92 296.827 119.32 296.475 119.64C296.131 119.96 295.675 120.12 295.107 120.12C294.739 120.12 294.407 120.056 294.111 119.928C293.815 119.792 293.563 119.62 293.355 119.412C293.155 119.204 293.003 118.992 292.899 118.776L293.655 118.308ZM247.693 135.296C247.693 135.504 247.741 135.684 247.837 135.836C247.941 135.988 248.081 136.104 248.257 136.184C248.441 136.256 248.649 136.292 248.881 136.292C249.177 136.292 249.441 136.232 249.673 136.112C249.913 135.992 250.101 135.824 250.237 135.608C250.381 135.384 250.453 135.128 250.453 134.84L250.645 135.56C250.645 135.912 250.537 136.204 250.321 136.436C250.113 136.668 249.853 136.84 249.541 136.952C249.237 137.064 248.933 137.12 248.629 137.12C248.293 137.12 247.977 137.052 247.681 136.916C247.393 136.772 247.161 136.568 246.985 136.304C246.809 136.04 246.721 135.72 246.721 135.344C246.721 134.808 246.909 134.38 247.285 134.06C247.669 133.732 248.201 133.568 248.881 133.568C249.281 133.568 249.613 133.616 249.877 133.712C250.149 133.8 250.365 133.904 250.525 134.024C250.685 134.136 250.793 134.228 250.849 134.3V134.864C250.569 134.672 250.281 134.536 249.985 134.456C249.689 134.368 249.373 134.324 249.037 134.324C248.725 134.324 248.469 134.364 248.269 134.444C248.077 134.524 247.933 134.636 247.837 134.78C247.741 134.924 247.693 135.096 247.693 135.296ZM247.549 132.752L247.081 132.044C247.289 131.892 247.573 131.74 247.933 131.588C248.301 131.436 248.741 131.36 249.253 131.36C249.685 131.36 250.061 131.428 250.381 131.564C250.709 131.692 250.961 131.88 251.137 132.128C251.321 132.376 251.413 132.68 251.413 133.04V137H250.453V133.172C250.453 132.98 250.421 132.824 250.357 132.704C250.293 132.576 250.201 132.476 250.081 132.404C249.969 132.332 249.837 132.28 249.685 132.248C249.533 132.216 249.373 132.2 249.205 132.2C248.933 132.2 248.685 132.232 248.461 132.296C248.245 132.36 248.061 132.436 247.909 132.524C247.757 132.612 247.637 132.688 247.549 132.752ZM256.579 133.64C256.579 133.184 256.479 132.84 256.279 132.608C256.079 132.376 255.787 132.26 255.403 132.26C255.123 132.26 254.875 132.32 254.659 132.44C254.451 132.552 254.287 132.712 254.167 132.92C254.055 133.128 253.999 133.368 253.999 133.64V137H253.039V131.48H253.999V132.344C254.183 132.008 254.411 131.76 254.683 131.6C254.963 131.44 255.283 131.36 255.643 131.36C256.227 131.36 256.687 131.556 257.023 131.948C257.367 132.332 257.539 132.856 257.539 133.52V137H256.579V133.64ZM263.483 127.64H264.443V137H263.483V127.64ZM258.863 134.24C258.863 133.64 258.987 133.128 259.235 132.704C259.483 132.272 259.815 131.94 260.231 131.708C260.647 131.476 261.103 131.36 261.599 131.36C262.063 131.36 262.467 131.476 262.811 131.708C263.155 131.94 263.423 132.272 263.615 132.704C263.815 133.128 263.915 133.64 263.915 134.24C263.915 134.832 263.815 135.344 263.615 135.776C263.423 136.208 263.155 136.54 262.811 136.772C262.467 137.004 262.063 137.12 261.599 137.12C261.103 137.12 260.647 137.004 260.231 136.772C259.815 136.54 259.483 136.208 259.235 135.776C258.987 135.344 258.863 134.832 258.863 134.24ZM259.835 134.24C259.835 134.664 259.919 135.024 260.087 135.32C260.263 135.616 260.495 135.84 260.783 135.992C261.071 136.144 261.383 136.22 261.719 136.22C261.999 136.22 262.275 136.144 262.547 135.992C262.819 135.84 263.043 135.616 263.219 135.32C263.395 135.024 263.483 134.664 263.483 134.24C263.483 133.816 263.395 133.456 263.219 133.16C263.043 132.864 262.819 132.64 262.547 132.488C262.275 132.336 261.999 132.26 261.719 132.26C261.383 132.26 261.071 132.336 260.783 132.488C260.495 132.64 260.263 132.864 260.087 133.16C259.919 133.456 259.835 133.816 259.835 134.24ZM273.325 133.64C273.325 133.184 273.225 132.84 273.025 132.608C272.825 132.376 272.533 132.26 272.149 132.26C271.869 132.26 271.621 132.32 271.405 132.44C271.197 132.552 271.033 132.712 270.913 132.92C270.801 133.128 270.745 133.368 270.745 133.64V137H269.785V131.48H270.745V132.344C270.929 132.008 271.157 131.76 271.429 131.6C271.709 131.44 272.029 131.36 272.389 131.36C272.973 131.36 273.433 131.556 273.769 131.948C274.113 132.332 274.285 132.856 274.285 133.52V137H273.325V133.64ZM275.609 134.24C275.609 133.68 275.733 133.184 275.981 132.752C276.237 132.32 276.581 131.98 277.013 131.732C277.445 131.484 277.929 131.36 278.465 131.36C279.009 131.36 279.493 131.484 279.917 131.732C280.349 131.98 280.689 132.32 280.937 132.752C281.193 133.184 281.321 133.68 281.321 134.24C281.321 134.792 281.193 135.288 280.937 135.728C280.689 136.16 280.349 136.5 279.917 136.748C279.493 136.996 279.009 137.12 278.465 137.12C277.929 137.12 277.445 136.996 277.013 136.748C276.581 136.5 276.237 136.16 275.981 135.728C275.733 135.288 275.609 134.792 275.609 134.24ZM276.581 134.24C276.581 134.624 276.661 134.964 276.821 135.26C276.989 135.556 277.213 135.792 277.493 135.968C277.781 136.136 278.105 136.22 278.465 136.22C278.825 136.22 279.145 136.136 279.425 135.968C279.713 135.792 279.937 135.556 280.097 135.26C280.265 134.964 280.349 134.624 280.349 134.24C280.349 133.856 280.265 133.516 280.097 133.22C279.937 132.916 279.713 132.68 279.425 132.512C279.145 132.344 278.825 132.26 278.465 132.26C278.105 132.26 277.781 132.344 277.493 132.512C277.213 132.68 276.989 132.916 276.821 133.22C276.661 133.516 276.581 133.856 276.581 134.24ZM281.8 131.48H284.56V132.38H281.8V131.48ZM282.7 129.56H283.66V137H282.7V129.56ZM287.659 137.12C287.147 137.12 286.691 137 286.291 136.76C285.899 136.512 285.591 136.172 285.367 135.74C285.151 135.308 285.043 134.808 285.043 134.24C285.043 133.664 285.155 133.16 285.379 132.728C285.611 132.296 285.931 131.96 286.339 131.72C286.755 131.48 287.235 131.36 287.779 131.36C288.323 131.36 288.787 131.476 289.171 131.708C289.563 131.932 289.863 132.256 290.071 132.68C290.279 133.104 290.383 133.608 290.383 134.192C290.383 134.248 290.379 134.308 290.371 134.372C290.371 134.428 290.371 134.464 290.371 134.48H285.655V133.664H289.615L289.231 134.216C289.255 134.176 289.279 134.116 289.303 134.036C289.327 133.948 289.339 133.876 289.339 133.82C289.339 133.492 289.271 133.208 289.135 132.968C289.007 132.728 288.827 132.54 288.595 132.404C288.363 132.268 288.091 132.2 287.779 132.2C287.411 132.2 287.095 132.28 286.831 132.44C286.575 132.592 286.375 132.816 286.231 133.112C286.095 133.4 286.023 133.756 286.015 134.18C286.015 134.612 286.083 134.98 286.219 135.284C286.355 135.588 286.555 135.82 286.819 135.98C287.083 136.14 287.403 136.22 287.779 136.22C288.155 136.22 288.487 136.14 288.775 135.98C289.063 135.812 289.307 135.56 289.507 135.224L290.287 135.716C289.999 136.18 289.635 136.532 289.195 136.772C288.763 137.004 288.251 137.12 287.659 137.12ZM291.927 135.308C292.039 135.476 292.167 135.632 292.311 135.776C292.455 135.92 292.619 136.036 292.803 136.124C292.995 136.204 293.203 136.244 293.427 136.244C293.699 136.244 293.911 136.184 294.063 136.064C294.223 135.936 294.303 135.764 294.303 135.548C294.303 135.356 294.239 135.196 294.111 135.068C293.991 134.932 293.835 134.82 293.643 134.732C293.451 134.636 293.247 134.548 293.031 134.468C292.791 134.372 292.547 134.26 292.299 134.132C292.059 133.996 291.855 133.824 291.687 133.616C291.527 133.4 291.447 133.132 291.447 132.812C291.447 132.484 291.531 132.212 291.699 131.996C291.875 131.78 292.099 131.62 292.371 131.516C292.651 131.412 292.939 131.36 293.235 131.36C293.531 131.36 293.807 131.408 294.063 131.504C294.327 131.6 294.559 131.728 294.759 131.888C294.959 132.048 295.115 132.232 295.227 132.44L294.459 132.932C294.307 132.724 294.115 132.552 293.883 132.416C293.659 132.28 293.403 132.212 293.115 132.212C292.915 132.212 292.743 132.256 292.599 132.344C292.455 132.432 292.383 132.568 292.383 132.752C292.383 132.896 292.439 133.024 292.551 133.136C292.663 133.248 292.807 133.348 292.983 133.436C293.159 133.524 293.343 133.608 293.535 133.688C293.855 133.816 294.147 133.956 294.411 134.108C294.675 134.252 294.883 134.428 295.035 134.636C295.195 134.844 295.275 135.112 295.275 135.44C295.275 135.92 295.099 136.32 294.747 136.64C294.403 136.96 293.947 137.12 293.379 137.12C293.011 137.12 292.679 137.056 292.383 136.928C292.087 136.792 291.835 136.62 291.627 136.412C291.427 136.204 291.275 135.992 291.171 135.776L291.927 135.308Z" fill="black"/>
</svg>
